<?xml version="1.0" encoding="UTF-8" standalone="no"?>
<!-- Created with Inkscape (http://www.inkscape.org/) -->

<svg
   width="386.52533"
   height="297.95898"
   viewBox="0 0 102.26816 78.834983"
   version="1.1"
   id="svg1"
   inkscape:export-filename="codeartist.svg"
   inkscape:export-xdpi="96"
   inkscape:export-ydpi="96"
   xmlns:inkscape="http://www.inkscape.org/namespaces/inkscape"
   xmlns:sodipodi="http://sodipodi.sourceforge.net/DTD/sodipodi-0.dtd"
   xmlns="http://www.w3.org/2000/svg"
   xmlns:svg="http://www.w3.org/2000/svg">
  <sodipodi:namedview
     id="namedview1"
     pagecolor="#36363f"
     bordercolor="#000000"
     borderopacity="0.25"
     inkscape:showpageshadow="2"
     inkscape:pageopacity="0.0"
     inkscape:pagecheckerboard="0"
     inkscape:deskcolor="#64676e"
     inkscape:document-units="mm"
     inkscape:zoom="1.0242632"
     inkscape:cx="209.41883"
     inkscape:cy="180.12948"
     inkscape:window-width="1920"
     inkscape:window-height="1009"
     inkscape:window-x="1912"
     inkscape:window-y="-8"
     inkscape:window-maximized="1"
     inkscape:current-layer="layer1" />
  <defs
     id="defs1" />
  <g
     inkscape:label="Camada 1"
     inkscape:groupmode="layer"
     id="layer1"
     transform="translate(-16.498217,-31.59497)">
    <path
       id="path10"
       style="opacity:1;fill:#7464ff;fill-opacity:1;stroke-width:1.11512;stroke-dasharray:3.34538, 3.34538"
       d="m 85.390653,31.594971 -29.44058,47.705098 3.174483,3.968233 -5.2064,-1.051098 -6.5257,15.69775 12.716537,-6.556189 -0.984437,-8.089946 3.174484,3.968233 z M 43.185478,38.862227 16.498218,65.549487 42.990658,92.04141 27.373523,64.992415 Z m 48.893656,0 L 107.89109,64.992415 92.273954,92.04141 118.76639,65.549487 Z m -2.471167,30.453955 a 4.2175989,4.2175989 0 0 0 -4.217314,4.217314 4.2175989,4.2175989 0 0 0 4.217314,4.21783 4.2175989,4.2175989 0 0 0 4.217831,-4.21783 4.2175989,4.2175989 0 0 0 -4.217831,-4.217314 z m -6.684863,13.474113 a 6.3287358,6.3287358 0 0 0 -6.328813,6.328813 6.3287358,6.3287358 0 0 0 6.328813,6.328813 6.3287358,6.3287358 0 0 0 6.328813,-6.328813 6.3287358,6.3287358 0 0 0 -6.328813,-6.328813 z M 68.555505,95.447921 a 7.4911571,7.4911571 0 0 0 -7.491532,7.491019 7.4911571,7.4911571 0 0 0 7.491532,7.49101 7.4911571,7.4911571 0 0 0 7.491016,-7.49101 7.4911571,7.4911571 0 0 0 -7.491016,-7.491019 z" />
  </g>
</svg>
