<?xml version="1.0" encoding="UTF-8" standalone="no"?>
<!-- Created with Inkscape (http://www.inkscape.org/) -->

<svg
   width="422.36133"
   height="423.15625"
   viewBox="0 0 111.74976 111.96009"
   version="1.1"
   id="svg1"
   inkscape:export-filename="codeartist.svg"
   inkscape:export-xdpi="96"
   inkscape:export-ydpi="96"
   xml:space="preserve"
   xmlns:inkscape="http://www.inkscape.org/namespaces/inkscape"
   xmlns:sodipodi="http://sodipodi.sourceforge.net/DTD/sodipodi-0.dtd"
   xmlns="http://www.w3.org/2000/svg"
   xmlns:svg="http://www.w3.org/2000/svg"><sodipodi:namedview
     id="namedview1"
     pagecolor="#36363f"
     bordercolor="#000000"
     borderopacity="0.25"
     inkscape:showpageshadow="2"
     inkscape:pageopacity="0.0"
     inkscape:pagecheckerboard="0"
     inkscape:deskcolor="#64676e"
     inkscape:document-units="mm"
     inkscape:zoom="1.0242632"
     inkscape:cx="209.41883"
     inkscape:cy="180.12948"
     inkscape:window-width="1920"
     inkscape:window-height="1009"
     inkscape:window-x="1912"
     inkscape:window-y="-8"
     inkscape:window-maximized="1"
     inkscape:current-layer="layer1" /><defs
     id="defs1" /><g
     inkscape:label="Camada 1"
     inkscape:groupmode="layer"
     id="layer1"
     transform="translate(-12.54497,-12.815756)"><path
       id="path1"
       style="fill:#8264e6;fill-opacity:1;fill-rule:evenodd;stroke-width:0.408694"
       d="m 12.544971,12.815755 v 3.425631 62.591011 L 16.749882,52.462948 19.392098,48.22238 V 19.66495 h 24.859981 l 2.94659,-5.143356 h 10.807093 l -0.915707,2.106332 10.196794,3.037024 h 50.158691 v 47.310807 l 4.33566,8.212418 -4.33566,30.350605 v 12.38839 H 99.899329 l 0.03049,-20.221506 -2.469617,-7.142716 -1.156002,12.298992 -1.783353,8.24704 0.797367,6.81819 h -2.339392 l 0.857829,-0.62425 -0.953947,-6.0508 1.799373,-9.33586 1.581816,-14.404806 -2.885612,-0.165364 1.451074,-4.169255 -4.539775,1.598352 -2.707328,5.401738 -10.206095,-7.911662 -8.034135,2.846338 -6.951514,-0.269751 2.029333,3.929992 -2.490804,3.91449 8.778276,0.519348 4.716508,8.88111 -1.399915,8.37882 4.456576,0.37517 -4.814176,4.68085 0.290938,2.40554 h -2.920752 l 1.847432,-15.04766 -3.22771,-7.432623 -8.267195,-0.666109 -0.880567,9.522932 0.302824,13.62346 H 58.70236 l -10.345105,-12.02356 -4.026628,-7.929745 -1.144116,5.720065 -5.577437,-1.14412 -5.577437,9.86813 -3.574976,-28.316614 5.148006,-12.441617 -1.286743,-15.302425 3.861263,-13.443108 10.725444,-10.153385 -0.786516,3.289205 7.723043,-1.501717 -2.57452,-2.574003 9.438701,-2.002462 -3.289205,-1.95957 8.770007,-6.263701 -9.842293,-2.931604 0.714685,-1.644344 h -8.437728 l -4.218864,7.364925 -1.644344,-1.930631 -1.573031,6.507096 4.147034,-0.500744 -14.44408,8.15144 -11.583789,18.59163 -4.448307,27.895455 8.30957,26.449034 5.766573,8.22637 h -9.539469 v -9.11211 L 12.544971,87.021045 V 124.77585 H 124.29474 V 12.815755 Z m 60.720841,15.196489 2.9099,3.836975 -0.82734,16.537492 4.686019,3.23081 0.0708,-12.217342 5.816699,10.710974 0.10542,-6.679179 -8.409306,-14.519527 z m -22.953121,9.657291 2.579171,2.295984 h 10e-4 l 3.654557,1.342037 18.123958,15.970602 -7.715808,-1.722376 5.929354,7.041947 3.944979,-8.954492 4.528922,0.302824 -23.38927,-14.567586 z m 22.572266,24.928194 -8.371065,1.196827 7.385595,3.993038 -4.753715,1.465543 4.980058,2.581755 -0.754476,3.65249 3.4401,-2.260844 0.04082,0.02067 -0.86403,4.172355 4.263822,-2.409155 13.023495,6.749458 6.73809,-5.070491 -5.266346,-5.09633 v -5.17e-4 l 5.010547,-2.914034 1.005624,-7.502901 -4.165638,1.292428 4.210079,-2.717664 -0.04444,1.425236 -0.240296,7.831563 -2.530595,5.351612 4.123264,-4.911845 2.46652,-8.490438 -6.469378,-5.102531 -2.50889,0.934827 -2.259294,0.836124 1.702738,-2.761071 -5.905582,-9.742041 -0.19172,9.171016 2.243274,0.129708 -4.402315,1.157552 -7.35614,9.926526 6.341732,-11.398788 -6.154147,1.151351 -4.290694,9.120374 1.531689,8.812382 -2.892846,-8.521444 z m 10.891842,-8.489921 3.077848,0.178801 -5.649785,-10.676868 0.157097,10.33632 z m -5.524728,20.902601 0.03411,6.749458 9.819038,4.969206 -0.471289,-4.969206 z M 64.513892,63.794556 69.491882,61.830851 65.638371,60.203044 52.892896,39.965519 63.25092,63.088656 Z m 33.815507,-15.568042 -3.396692,4.919596 10.190593,7.027995 -2.4598,10.659298 -3.865396,3.982185 3.279386,2.459799 -8.082194,5.388301 7.596954,-1.964221 -1.26142,5.009513 4.32376,-2.459798 1.2883,7.262606 2.8112,-0.117306 1.05419,6.559807 2.1084,-0.468706 2.8112,9.370487 4.3341,-30.337682 -9.95649,-18.858281 4.4514,-1.756998 -7.9654,-3.279903 1.28881,-2.693893 z m -46.787842,4.016292 -12.815755,4.122746 5.04517,1.11001 -10.272758,5.332491 6.875032,-0.03772 -9.908439,20.310388 2.852022,23.089029 3.518132,-6.56549 4.821411,1.27124 1.138432,-4.876704 4.990393,-1.081588 1.29036,-7.986076 12.138278,2.157491 -2.62723,-6.41873 h 10.040214 l -5.61051,-4.557344 -5.392953,-6.498828 z m 37.166207,5.508191 5.889046,4.717541 -6.066296,-1.354439 -4.912879,4.877222 -0.447001,7.488948 -5.205367,-5.074625 0.36897,6.557739 -1.758549,-7.912695 0.856278,-1.540475 5.738668,7.970056 -0.810287,-8.464599 z m 5.890079,4.718058 2.611727,1.914612 -4.46226,7.208346 1.055233,-4.565613 2.196249,-2.054138 z" /></g></svg>
