<?xml version="1.0" encoding="UTF-8" standalone="no"?>
<!-- Created with Inkscape (http://www.inkscape.org/) -->

<svg
   width="1280"
   height="720"
   viewBox="0 0 338.66666 190.5"
   version="1.1"
   id="svg1"
   sodipodi:docname="home.svg"
   inkscape:version="1.3 (0e150ed6c4, 2023-07-21)"
   xml:space="preserve"
   xmlns:inkscape="http://www.inkscape.org/namespaces/inkscape"
   xmlns:sodipodi="http://sodipodi.sourceforge.net/DTD/sodipodi-0.dtd"
   xmlns:xlink="http://www.w3.org/1999/xlink"
   xmlns="http://www.w3.org/2000/svg"
   xmlns:svg="http://www.w3.org/2000/svg"><sodipodi:namedview
     id="namedview1"
     pagecolor="#ffffff"
     bordercolor="#000000"
     borderopacity="0.25"
     inkscape:showpageshadow="2"
     inkscape:pageopacity="0.0"
     inkscape:pagecheckerboard="0"
     inkscape:deskcolor="#d1d1d1"
     inkscape:document-units="mm"
     inkscape:zoom="0.44002016"
     inkscape:cx="654.51547"
     inkscape:cy="344.30241"
     inkscape:window-width="1920"
     inkscape:window-height="1009"
     inkscape:window-x="1912"
     inkscape:window-y="-8"
     inkscape:window-maximized="1"
     inkscape:current-layer="layer1"
     showguides="false"><inkscape:page
       x="0"
       y="0"
       width="338.66666"
       height="190.5"
       id="page4"
       inkscape:export-filename="..\public\backgrounds\home.svg"
       inkscape:export-xdpi="96"
       inkscape:export-ydpi="96"
       margin="0"
       bleed="0" /></sodipodi:namedview><defs
     id="defs1"><linearGradient
       id="linearGradient2"
       inkscape:collect="always"><stop
         style="stop-color:#8264e6;stop-opacity:1;"
         offset="0"
         id="stop1" /><stop
         style="stop-color:#8264e6;stop-opacity:1;"
         offset="1"
         id="stop2" /></linearGradient><radialGradient
       inkscape:collect="always"
       xlink:href="#linearGradient2"
       id="radialGradient1"
       gradientUnits="userSpaceOnUse"
       gradientTransform="matrix(1,0,0,0.87720221,-131.06199,-266.87332)"
       cx="518"
       cy="98.729065"
       fx="518"
       fy="98.729065"
       r="107.81906" /></defs><g
     inkscape:label="Camada 1"
     inkscape:groupmode="layer"
     id="layer1"
     transform="translate(-348.66666)"><path
       id="path12"
       style="opacity:0.1510277;fill:#8264e6;fill-opacity:1;stroke:none;stroke-width:0.410633;stroke-dasharray:1.2319, 1.2319;stroke-dashoffset:0;stroke-opacity:0.448022"
       d="m 571.20748,-23.763086 -17.13649,-0.223004 -43.71919,47.697008 -5.14771,25.240332 30.79438,-35.508053 -9.87381,46.068058 20.3278,-8.277955 10.61129,-62.962086 z m 78.41972,55.419315 -30.25276,0.07984 -100.17058,35.443732 17.30766,2.620295 7.42249,36.993399 28.17419,-21.596884 -30.48592,0.08339 81.50623,-45.098444 14.87656,-2.021191 0.005,7.15e-4 z m -11.62213,6.504004 -64.7944,65.630307 -15.86231,2.93253 17.11486,11.52617 5.3432,-1.60892 z m -63.54185,80.089007 -30.52921,-11.45589 1.72135,8.56407 -17.96559,29.68987 13.08177,-31.91444 -8.58705,-37.905978 -22.21925,-9.444336 14.42052,48.188374 -19.46261,-43.487206 -15.61664,-8.013064 8.55445,1.373769 6.89031,-34.694259 -30.32463,31.784606 4.12032,11.810368 -7.81583,-5.023382 -8.67029,-5.603159 -28.59804,13.84526 2.24038,34.018847 11.45137,21.91986 -5.08737,-22.25368 5.59509,-29.690656 1.01516,-5.404699 13.6008,13.732601 26.09501,-12.877659 17.87173,32.625573 -10.07699,31.20311 28.22553,-25.24967 1.94675,6.51223 -13.19078,28.33737 6.83264,-24.38918 -23.81414,14.78925 4.53397,-28.57275 -14.45391,-22.443669 -23.96982,0.06567 -7.35558,8.264625 6.5656,9.557679 0.18251,18.0724 -24.06158,14.82171 21.1652,24.68629 54.6453,-14.60692 14.05746,12.61266 0.20731,-16.43071 0.17066,-0.0398 11.07832,11.36843 0.19211,-14.38092 20.89702,-5.5876 -16.68494,-9.46534 z m -112.79164,5.9316 -10.82077,-30.852301 11.42771,-5.042409 -14.61625,-8.327916 -2.44002,29.088166 z m 48.29366,-58.398304 9.22851,1.395791 9.17058,-38.79484 -30.1391,35.517119 z"
       inkscape:export-filename="..\public\backgrounds\home.svg"
       inkscape:export-xdpi="96"
       inkscape:export-ydpi="96" /><path
       id="path1"
       style="opacity:1;fill:url(#radialGradient1);fill-opacity:1;stroke:none;stroke-width:0.410801;stroke-dasharray:none;stroke-opacity:1"
       d="m 438.74639,-299.69968 -17.14831,0.0225 -43.05751,48.34771 -4.78849,25.32683 30.3009,-35.96735 -9.21844,46.23279 20.21939,-8.57351 9.71411,-63.14589 z m 79.2536,54.32313 -30.26685,0.51354 -99.71295,36.89745 17.35395,2.37352 7.95649,36.90564 27.87879,-22.01163 -30.50007,0.52042 80.90081,-46.28948 14.85508,-2.23546 0.005,6.5e-4 z m -11.53475,6.67387 -63.88625,66.59216 -15.82827,3.16137 17.28869,11.28664 5.32284,-1.68631 z m -62.42583,81.04017 -30.70878,-11.02403 1.84498,8.5437 -17.54906,29.96235 12.63088,-32.11804 -9.13473,-37.80198 -22.36581,-9.13059 15.11852,48.00593 -20.09576,-43.23012 -15.73937,-7.79325 8.57845,1.25184 6.39645,-34.81049 -29.88427,32.23529 4.29169,11.75725 -7.89177,-4.91388 -8.75498,-5.48169 -28.41398,14.26216 2.72914,34.00387 11.77134,21.76674 -5.40891,-22.19195 5.17231,-29.78582 0.93819,-5.42197 13.80449,13.54456 25.92356,-13.2582 18.3484,32.38583 -9.63478,31.36327 27.87781,-25.66698 2.04106,6.48759 -12.79123,28.54073 6.48648,-24.4994 -23.61412,15.13806 4.12668,-28.65213 -14.78291,-22.24779 -23.98095,0.4093 -7.2408,8.37422 6.70589,9.46839 0.44167,18.07889 -23.86124,15.17408 21.52972,24.39533 54.46343,-15.39759 14.24533,12.41751 -0.0281,-16.44195 0.1702,-0.0422 11.24683,11.21533 -0.0139,-14.39091 20.82745,-5.88995 -16.82904,-9.23095 z m -112.76339,7.55139 -11.26848,-30.71275 11.36118,-5.20876 -14.74297,-8.12259 -2.0243,29.13782 z m 47.48087,-59.11998 9.25318,1.26421 8.61909,-38.94583 -29.64516,35.96703 z"
       inkscape:export-filename="..\public\backgrounds\home.svg"
       inkscape:export-xdpi="96"
       inkscape:export-ydpi="96" /></g></svg>
