<?xml version="1.0" encoding="UTF-8" standalone="no"?>
<!-- Created with Inkscape (http://www.inkscape.org/) -->

<svg
   width="1280"
   height="720"
   viewBox="0 0 338.66666 190.5"
   version="1.1"
   id="svg1"
   sodipodi:docname="prototipo.svg"
   inkscape:version="1.3 (0e150ed6c4, 2023-07-21)"
   xml:space="preserve"
   xmlns:inkscape="http://www.inkscape.org/namespaces/inkscape"
   xmlns:sodipodi="http://sodipodi.sourceforge.net/DTD/sodipodi-0.dtd"
   xmlns:xlink="http://www.w3.org/1999/xlink"
   xmlns="http://www.w3.org/2000/svg"
   xmlns:svg="http://www.w3.org/2000/svg"><sodipodi:namedview
     id="namedview1"
     pagecolor="#ffffff"
     bordercolor="#000000"
     borderopacity="0.25"
     inkscape:showpageshadow="2"
     inkscape:pageopacity="0.0"
     inkscape:pagecheckerboard="0"
     inkscape:deskcolor="#d1d1d1"
     inkscape:document-units="mm"
     inkscape:zoom="0.88004032"
     inkscape:cx="607.35854"
     inkscape:cy="274.41924"
     inkscape:window-width="1920"
     inkscape:window-height="1009"
     inkscape:window-x="1912"
     inkscape:window-y="-8"
     inkscape:window-maximized="1"
     inkscape:current-layer="layer1"
     showguides="false"><inkscape:page
       x="0"
       y="0"
       width="338.66666"
       height="190.5"
       id="page4"
       inkscape:export-filename="..\public\backgrounds\home.svg"
       inkscape:export-xdpi="96"
       inkscape:export-ydpi="96"
       margin="0"
       bleed="0" /></sodipodi:namedview><defs
     id="defs1"><linearGradient
       id="linearGradient17"
       inkscape:collect="always"><stop
         style="stop-color:#8264e6;stop-opacity:0.31042653;"
         offset="0"
         id="stop17" /><stop
         style="stop-color:#8264e6;stop-opacity:0;"
         offset="1"
         id="stop18" /></linearGradient><radialGradient
       inkscape:collect="always"
       xlink:href="#linearGradient17"
       id="radialGradient18"
       cx="518"
       cy="98.729065"
       fx="518"
       fy="98.729065"
       r="107.81906"
       gradientTransform="matrix(1,0,0,0.87720221,0,8.6446456)"
       gradientUnits="userSpaceOnUse" /></defs><g
     inkscape:label="Camada 1"
     inkscape:groupmode="layer"
     id="layer1"
     transform="translate(-348.66666)"><path
       id="path4"
       style="opacity:1;fill:url(#radialGradient18);fill-opacity:1;stroke:none;stroke-width:0.410801;stroke-dasharray:none;stroke-opacity:1"
       d="m 569.80838,-24.181715 -17.14831,0.02252 -43.05751,48.347708 -4.78849,25.326829 30.3009,-35.967347 -9.21844,46.232788 20.21939,-8.573508 9.71411,-63.145894 z m 79.2536,54.323128 -30.26685,0.513534 -99.71295,36.897455 17.35395,2.373521 7.95649,36.905637 27.87879,-22.011624 -30.50007,0.52042 80.90081,-46.289488 14.85508,-2.235454 0.005,6.45e-4 z m -11.53475,6.673873 -63.88625,66.592154 -15.82827,3.16137 17.28869,11.28664 5.32284,-1.68631 z m -62.42583,81.040164 -30.70878,-11.02403 1.84498,8.5437 -17.54906,29.96235 12.63088,-32.11804 -9.13473,-37.801976 -22.36581,-9.130595 15.11852,48.005931 -20.09576,-43.230121 -15.73937,-7.793243 8.57845,1.251837 6.39645,-34.810495 -29.88427,32.235293 4.29169,11.757253 -7.89177,-4.913879 -8.75498,-5.481696 -28.41398,14.262165 2.72914,34.003866 11.77134,21.76674 -5.40891,-22.19195 5.17231,-29.785814 0.93819,-5.421972 13.80449,13.544562 25.92356,-13.258202 18.3484,32.385826 -9.63478,31.36327 27.87781,-25.66698 2.04106,6.48759 -12.79123,28.54073 6.48648,-24.4994 -23.61412,15.13806 4.12668,-28.65213 -14.78291,-22.247784 -23.98095,0.4093 -7.2408,8.37422 6.70589,9.468384 0.44167,18.07889 -23.86124,15.17408 21.52972,24.39533 54.46343,-15.39759 14.24533,12.41751 -0.0281,-16.44195 0.1702,-0.0422 11.24683,11.21533 -0.0139,-14.39091 20.82745,-5.88995 -16.82904,-9.23095 z m -112.76339,7.55139 -11.26848,-30.712744 11.36118,-5.20876 -14.74297,-8.12259 -2.0243,29.137814 z m 47.48087,-59.119981 9.25318,1.26421 8.61909,-38.945828 -29.64516,35.967026 z"
       inkscape:export-filename="..\public\backgrounds\home.svg"
       inkscape:export-xdpi="96"
       inkscape:export-ydpi="96" /></g></svg>
