<?xml version="1.0" encoding="UTF-8" standalone="no"?>
<!-- Created with Inkscape (http://www.inkscape.org/) -->

<svg
   width="1200"
   height="630"
   viewBox="0 0 317.49999 166.6875"
   version="1.1"
   id="svg1"
   sodipodi:docname="og.svg"
   inkscape:version="1.3 (0e150ed6c4, 2023-07-21)"
   xml:space="preserve"
   xmlns:inkscape="http://www.inkscape.org/namespaces/inkscape"
   xmlns:sodipodi="http://sodipodi.sourceforge.net/DTD/sodipodi-0.dtd"
   xmlns="http://www.w3.org/2000/svg"
   xmlns:svg="http://www.w3.org/2000/svg"><sodipodi:namedview
     id="namedview1"
     pagecolor="#ffffff"
     bordercolor="#000000"
     borderopacity="0.25"
     inkscape:showpageshadow="2"
     inkscape:pageopacity="0.0"
     inkscape:pagecheckerboard="0"
     inkscape:deskcolor="#d1d1d1"
     inkscape:document-units="mm"
     inkscape:zoom="0.44002016"
     inkscape:cx="474.97824"
     inkscape:cy="96.586484"
     inkscape:window-width="1920"
     inkscape:window-height="1009"
     inkscape:window-x="1912"
     inkscape:window-y="-8"
     inkscape:window-maximized="1"
     inkscape:current-layer="layer1"
     showguides="false"><inkscape:page
       x="0"
       y="0"
       width="317.5"
       height="166.6875"
       id="page4"
       inkscape:export-filename="..\public\backgrounds\home.svg"
       inkscape:export-xdpi="96"
       inkscape:export-ydpi="96"
       margin="0"
       bleed="0" /></sodipodi:namedview><defs
     id="defs1" /><g
     inkscape:label="Camada 1"
     inkscape:groupmode="layer"
     id="layer1"
     transform="translate(-348.66666)"><rect
       style="fill:#1e1e24;fill-opacity:1;stroke-width:1.21863"
       id="rect1"
       width="317.5"
       height="166.6875"
       x="348.66666"
       y="0" /><path
       id="path73"
       style="opacity:0.148347;fill:#8264e6;fill-opacity:1;stroke:none;stroke-width:0.635584;stroke-dasharray:none;stroke-opacity:1"
       d="m 622.39885,-76.042641 -25.47559,-7.410826 -84.93001,53.106368 -18.10567,35.5324765 60.6116,-40.2588585 -33.75974,64.655466 33.74831,-3.954545 41.83795,-89.556827 z M 716.51102,39.033717 671.34079,26.657235 507.24616,38.164977 531.987,49.223233 527.78161,107.48333 578.738,86.897749 533.21843,74.430253 l 140.23512,-33.62174 23.03073,3.128991 0.008,0.0032 z m -20.02668,4.903597 -123.78149,71.158046 -24.87788,-2.17644 20.77466,24.26621 8.63663,-0.19354 z m -127.88471,93.247816 -40.81796,-29.702 -0.96903,13.48861 -39.06787,36.87692 32.7,-42.21322 2.84477,-60.102683 -29.25032,-23.268434 1.61174,77.853517 -11.07633,-72.921937 -19.99038,-18.405825 12.19585,5.582997 24.61047,-48.918018 -58.37276,34.897494 1.26937,19.322982 -9.58639,-10.723165 -10.62179,-11.9411168 -48.38705,8.8450548 -10.7085,51.68164 8.03172,37.434384 1.60129,-35.303855 20.61134,-41.987598 3.74697,-7.644538 14.62032,26.106781 44.25288,-8.435242 13.18903,56.059246 -27.92304,42.392986 52.54176,-26.01435 0.21471,10.52034 -31.38519,36.83117 20.26805,-33.56661 -41.63933,12.22945 18.56639,-40.757967 -12.29517,-39.456097 -35.79022,-9.80251 -14.38815,9.29271 5.84817,16.971958 -7.1923,27.039494 -42.02195,12.175652 21.38216,45.57414 87.56426,0.77709 15.76425,24.62444 7.09584,-24.42905 0.2711,0.0109 11.83324,21.53749 6.22658,-21.37701 33.48635,0.29459 -20.98446,-21.01391 z M 397.86403,99.447665 394.46261,48.946446 413.59551,46.143245 395.2278,27.680877 379.57266,70.072756 Z m 96.17519,-67.183342 13.19249,5.894281 29.70636,-54.094262 -59.63767,40.543043 z" /><text
       xml:space="preserve"
       style="font-style:normal;font-variant:normal;font-weight:normal;font-stretch:normal;font-size:11.3px;font-family:'Major Mono Display';-inkscape-font-specification:'Major Mono Display';text-align:start;text-anchor:start;fill:#54e088;fill-opacity:1;stroke-width:1.17708"
       x="448.44199"
       y="120.57288"
       id="text72"><tspan
         sodipodi:role="line"
         style="text-align:start;text-anchor:start;fill:#54e088;fill-opacity:1;stroke-width:1.17708"
         x="448.44199"
         y="120.57288"
         id="tspan1">DESIGNER &amp; DEV</tspan></text><path
       id="path6"
       d="m 415.57732,57.992845 -4.85797,1.433116 4.98695,2.293471 8.05359,17.064888 6.44558,0.729396 -6.49298,-12.317119 11.60059,7.639614 -3.48274,-6.769093 z m 11.50193,12.843865 5.71142,10.304301 2.51372,-1.134941 3.18965,-1.474248 z m 8.22514,9.16936 -5.56667,4.463843 0.5885,11.471322 6.27373,8.033875 -7.48568,-7.010883 -0.19506,-2.573751 -7.76984,5.700574 9.56769,0.0446 -3.98994,4.02742 6.39234,-0.0814 1.20431,4.07668 2.24233,-4.12068 0.0526,-9.3e-4 1.37284,4.65791 2.99099,-4.71274 16.71543,-0.21341 4.04765,-8.716456 -8.03119,-2.292525 -1.39301,-5.15644 1.10333,-3.244639 -2.75333,-1.762777 -6.82493,1.898284 -2.3178,7.540898 3.57486,7.767033 -7.95773,-2.303894 3.89437,6.392886 -6.01944,-7.007354 0.0332,-2.008823 10.04951,4.927185 -5.36232,-8.072252 2.47584,-10.71108 8.45435,1.577111 2.77163,-4.995192 0.7206,1.456655 3.96613,7.999959 0.33244,6.738405 1.50532,-7.151936 -2.08344,-9.858249 -9.24327,-1.652265 -2.01855,2.287802 -1.82227,2.054229 0.22751,-3.690095 -11.16916,-6.617948 4.73481,9.320114 2.3238,-1.074874 -3.80194,3.528124 -2.06035,13.929377 z m 18.85928,-0.949399 -3.49223,3.538537 3.6546,0.520611 -0.61157,9.643239 3.46995,-5.621153 z m -33.0143,21.034379 3.94798,-4.648014 -4.74814,0.434132 -23.68269,-13.491223 22.83388,17.674765 z m -24.48285,-17.705105 4.39419,-0.614543 26.79591,6.313426 -8.68051,2.413933 9.7431,3.891715 -0.84612,-11.119196 4.71445,-2.129377 -31.33433,-2.073852 -8.6136,2.396276 3.82564,0.921974 z m 86.20435,-24.078621 c -1.50259,0 -2.89602,0.249652 -4.17826,0.750518 -1.2622,0.50087 -2.27325,1.262268 -3.03456,2.284045 -0.76131,1.001737 -1.14259,2.223833 -1.14259,3.66634 0,1.442506 0.38128,2.604462 1.14259,3.48599 0.76131,0.881531 1.70313,1.543068 2.8251,1.983835 1.12194,0.42073 2.45411,0.781568 3.99677,1.08209 0.14025,0.02006 0.51018,0.09039 1.11122,0.210595 0.60104,0.100179 1.20247,0.280591 1.80348,0.541044 0.62109,0.260453 0.932,0.680312 0.932,1.261321 0,0.701217 -0.30069,1.222055 -0.90173,1.562646 -0.60103,0.340597 -1.42259,0.5108 -2.46439,0.5108 -1.2622,0 -2.24375,-0.299576 -2.94497,-0.900622 -0.70126,-0.601043 -1.04111,-1.47251 -1.0216,-2.614494 h -4.89853 c -0.0199,2.744769 0.7516,4.807701 2.31428,6.1901 1.58275,1.362367 3.82612,2.043205 6.73116,2.043205 1.52262,0 2.93536,-0.270071 4.23763,-0.811009 1.32229,-0.560973 2.38438,-1.362092 3.18578,-2.403901 0.80141,-1.041808 1.20195,-2.284325 1.20195,-3.72683 0,-1.522643 -0.37107,-2.705018 -1.11234,-3.546481 -0.74129,-0.841463 -1.62297,-1.42244 -2.64474,-1.742996 -1.00175,-0.340592 -2.40423,-0.691221 -4.20738,-1.051846 -1.1019,-0.24042 -2.01311,-0.510487 -2.73436,-0.811008 -0.72125,-0.300523 -1.08209,-0.771431 -1.08209,-1.412544 0,-0.58101 0.27118,-1.041707 0.81213,-1.382299 0.54093,-0.340597 1.30121,-0.510801 2.28292,-0.510801 1.22212,0 2.12423,0.260979 2.70524,0.781884 0.58102,0.500869 0.87148,1.291776 0.87148,2.373655 h 4.89855 c 0,-0.581007 -0.0395,-1.172196 -0.11991,-1.77324 -0.0801,-0.62108 -0.31047,-1.262197 -0.69114,-1.923346 -0.76132,-1.382399 -1.81319,-2.413866 -3.15552,-3.09505 -1.32231,-0.68118 -6.54138,-1.021601 -4.7182,-1.021601 z m 22.35873,0.15011 -9.85756,21.367382 h 19.71402 z m 13.79388,0.420064 v 20.917073 h 16.8889 V 58.877498 h -1.11122 l -7.27332,12.922369 -7.30242,-12.922369 z m 30.68277,23.501323 c -1.58275,0 -3.04541,0.390348 -4.38774,1.171704 -1.3223,0.781358 -2.37417,1.843455 -3.15552,3.185785 -0.78136,1.342329 -1.17173,2.794778 -1.17173,4.357489 v 4.628571 c 0,1.562718 0.39037,3.015162 1.17173,4.35749 0.78135,1.34233 1.83322,2.4033 3.15552,3.18466 1.34233,0.78136 2.80499,1.17282 4.38774,1.17282 1.58276,0 3.03518,-0.39146 4.35749,-1.17282 1.34234,-0.78136 2.40442,-1.84233 3.18579,-3.18466 0.78134,-1.342328 1.17169,-2.794772 1.17169,-4.35749 v -4.628571 c 0,-1.562711 -0.39035,-3.01516 -1.17169,-4.357489 -0.78137,-1.34233 -1.84345,-2.404427 -3.18579,-3.185785 -1.32231,-0.781356 -2.77473,-1.171704 -4.35749,-1.171704 z m -44.47665,0.119864 -9.85756,21.367375 h 19.71402 z m -30.68389,0.421185 v 20.91595 h 16.89002 V 82.91987 h -1.11232 L 483.0512,95.842236 475.74767,82.91987 Z m 89.25573,0 v 20.91595 h 16.88892 V 82.91987 h -1.11235 V 97.13492 L 564.97314,82.91987 Z m -44.38701,0.03025 v 20.91594 h 1.11121 V 89.981469 c 2.50434,0 4.81804,0.621818 6.94174,1.863973 2.14372,1.242159 3.83671,2.935164 5.07889,5.078886 1.24214,2.123689 1.86396,4.437382 1.86396,6.941732 h 1.11123 V 82.950117 h -1.11123 v 15.265775 c -0.7413,-1.823166 -1.80341,-3.43561 -3.1858,-4.838045 -1.38238,-1.422471 -2.99484,-2.524286 -4.83803,-3.305645 -1.8432,-0.801389 -3.79717,-1.201949 -5.86076,-1.201949 v -5.920136 z m 67.34618,0 v 20.91594 h 16.07789 l -5.31859,-7.423406 c 1.46254,-0.400697 2.67442,-1.212022 3.63606,-2.434146 0.96169,-1.242155 1.44283,-2.644671 1.44283,-4.207385 0,-1.262193 -0.30074,-2.413939 -0.90175,-3.455748 -0.60104,-1.04181 -1.44302,-1.863345 -2.52489,-2.464388 -1.10191,-0.621081 -2.52372,-0.930867 -4.26675,-0.930867 z m 22.89978,0 v 5.288355 h 6.22146 v 10.338116 h -6.22146 v 5.289469 h 13.52388 v -5.289469 h -6.22146 V 88.238472 h 6.22146 v -5.288355 z m -21.00669,1.11121 h 6.28195 c 1.42245,0 2.57421,0.221261 3.45575,0.662025 0.98171,0.480834 1.7431,1.171883 2.28405,2.073447 0.54092,0.901566 0.81101,1.902405 0.81101,3.004316 0,1.382402 -0.44029,2.605617 -1.32181,3.667462 -0.88153,1.061843 -1.99356,1.732471 -3.33591,2.012957 z m -0.78077,0.721393 7.72361,10.788428 h -7.72361 z m 8.47413,11.87052 4.38774,6.100477 h -12.86187 v -6.070233 h 7.54328 z"
       sodipodi:nodetypes="ccccccccccccccccccccccccccccccccccccccccccccccccccccccccccccccccccccccccccccccccccccccccssccccsssscccscsssccssssccccccscccccsccccccscsssscscsssscscccccccccccccccccccccccccccccccccccccccccsscscccccccccccccccccsssccccccccccccc"
       inkscape:export-filename="..\public\sam-inline.svg"
       inkscape:export-xdpi="96"
       inkscape:export-ydpi="96"
       style="font-size:13.8638px;line-height:0.8;font-family:'Major Mono Display';-inkscape-font-specification:'Major Mono Display';fill:#8264e6;stroke-width:1.54023" /><path
       style="opacity:0.48168007;fill:none;fill-opacity:1;fill-rule:evenodd;stroke:#54e088;stroke-width:1.05833333;stroke-opacity:1;stroke-dasharray:3.17499992, 3.17499992;stroke-dashoffset:0"
       d="M 378.4294,0 V 166.6875"
       id="path2" /><path
       style="opacity:0.48168007;fill:none;fill-opacity:1;fill-rule:evenodd;stroke:#54e088;stroke-width:1.05833;stroke-dasharray:3.175, 3.175;stroke-dashoffset:0;stroke-opacity:1"
       d="M 637.59448,0 V 166.6875"
       id="path3" /><path
       style="opacity:0.48168007;fill:none;fill-opacity:1;fill-rule:evenodd;stroke:#54e088;stroke-width:1.05833;stroke-dasharray:3.175, 3.175;stroke-dashoffset:0;stroke-opacity:1"
       d="m 348.66666,28.990952 317.50001,0"
       id="path4"
       sodipodi:nodetypes="cc" /><path
       style="opacity:0.48168007;fill:none;fill-opacity:1;fill-rule:evenodd;stroke:#54e088;stroke-width:1.05833;stroke-dasharray:3.175, 3.175;stroke-dashoffset:0;stroke-opacity:1"
       d="M 348.66666,137.69652 H 666.16667"
       id="path5"
       sodipodi:nodetypes="cc" /></g></svg>
