<?xml version="1.0" encoding="UTF-8" standalone="no"?>
<!-- Created with Inkscape (http://www.inkscape.org/) -->

<svg
   width="2000.0001"
   height="589.76282"
   viewBox="0 0 529.16668 156.04141"
   version="1.1"
   id="svg1"
   xml:space="preserve"
   xmlns="http://www.w3.org/2000/svg"
   xmlns:svg="http://www.w3.org/2000/svg"><defs
     id="defs1" /><g
     id="layer1"
     transform="translate(-928.30122,-27.28868)"><g
       id="g16"
       transform="matrix(1.5379421,0,0,1.5379421,796.11906,400.65182)"><path
         id="text10"
         style="font-weight:500;font-size:25.4px;line-height:0.85;font-family:Unbounded;-inkscape-font-specification:'Unbounded Medium';letter-spacing:0px;fill:#ffffff;stroke-width:0.848578;stroke-linecap:round;stroke-linejoin:round"
         d="m 148.90159,-242.76801 c -3.10537,0.46301 -7.34267,3.60691 -9.0661,7.46972 l -5.53668,-2.85613 2.54694,11.30571 c -2.2533,7.42484 -4.10727,16.3354 -4.93577,25.23818 -8.36717,-4.03189 -17.0623,-7.40033 -27.02347,-10.28947 l 0.0156,0.004 -8.78475,-14.82139 c -2.060185,2.46371 -2.909841,8.11303 -2.504631,11.87286 l -7.665315,-0.37377 8.903149,8.40692 -0.03377,-0.22085 c 3.692218,16.39827 14.261147,28.76972 25.238917,36.04095 -2.80785,0.67767 -5.38541,1.50414 -6.62012,2.30605 1.84316,3.02061 6.31862,4.32718 10.47319,4.31592 3.12855,-0.009 2.87311,-0.0172 5.08942,-0.0212 -7.22796,0 -8.3614,1.23971 -9.66738,2.31125 0.58385,2.0439 6.01144,3.42069 9.28508,3.41583 2.44615,-0.004 7.29068,-0.0276 9.02898,-0.0304 -7.06564,0 -8.34085,0.73119 -9.82475,2.21512 1.15602,2.07726 5.4018,2.54576 7.38805,2.54286 l 3.24919,-0.004 -2.142,5.48249 c 3.39315,3.98931 9.14614,6.53188 15.78903,7.15052 l 5.03004,-9.95728 c -6.33059,0 -14.02782,0.31696 -18.66743,-2.67573 l 34.23821,-0.0464 c 2.72677,-1.88139 6.17472,-7.22122 7.19765,-11.15391 -5.19878,-1.57263 -9.59265,-2.92537 -13.64703,-4.1797 l 2.2088,-4.37233 2.20844,-4.37233 11.69137,5.79909 c 1.64794,-6.18849 1.22044,-14.46897 -5.92939,-17.20465 l 1.72555,-3.41548 c -2.6545,-4.16335 -10.0119,-5.07551 -15.86807,-3.03279 -4.72236,-10.82502 -10.8462,-21.27358 -16.83907,-30.69988 l 0.92161,1.42454 z m 120.74733,18.06501 v 32.24579 h 6.22816 v -18.76021 l 9.89491,8.02758 6.7259,-5.45689 9.39681,-7.62597 v -8.4303 l -16.12271,13.08435 z m -56.0468,0.0126 c -2.98181,0 -5.57368,0.39038 -7.77519,1.17067 -2.20153,0.75241 -3.91521,1.85318 -5.14139,3.30226 -1.19829,1.44911 -1.79756,3.20464 -1.79756,5.26684 0,2.61952 0.90593,4.6677 2.7173,6.14465 1.83923,1.4491 4.79297,2.39653 8.8616,2.84239 l 6.31204,0.71079 c 2.22937,0.25079 3.57853,0.63794 4.36603,1.18104 0.81463,0.51594 1.22187,1.2628 1.22187,2.24036 0,1.24911 -0.70583,2.22657 -2.11786,2.93258 -1.38487,0.67887 -3.28585,1.01848 -5.70259,1.01848 -1.65643,0 -3.12281,-0.2036 -4.39907,-0.61093 -1.24911,-0.43447 -2.25393,-1.03201 -3.01423,-1.79236 -0.73316,-0.78749 -1.18108,-1.69692 -1.344,-2.72881 h -7.00576 c 0.10861,2.11805 0.82814,3.97796 2.15871,5.58011 1.33056,1.57494 3.14983,2.81037 5.45799,3.70645 2.3081,0.86894 4.98292,1.30353 8.02424,1.30353 2.98699,0 5.59382,-0.42092 7.82047,-1.26269 2.22668,-0.84181 3.95098,-2.02289 5.17293,-3.54353 1.24911,-1.54781 1.87364,-3.34011 1.87364,-5.37671 0,-1.71073 0.0279,-3.13513 -0.7245,-4.27769 -0.72455,-1.14256 -1.95088,-2.04851 -3.67863,-2.71731 -1.69992,-0.69667 -3.99881,-1.19815 -6.89701,-1.50469 l -6.56295,-0.79431 c -2.00645,-0.25081 -3.41348,-0.6271 -4.22164,-1.1287 -0.78027,-0.52948 -1.17067,-1.26764 -1.17067,-2.21512 0,-1.22616 0.6689,-2.17392 2.00653,-2.84276 1.33764,-0.66879 3.13504,-1.00327 5.39231,-1.00327 1.61628,0 3.35515,0.19518 4.55345,0.58534 1.1983,0.36226 2.13199,0.89191 2.80082,1.58858 0.69668,0.66883 1.1145,1.4629 1.2538,2.38251 h 7.18985 c -0.11147,-2.03429 -0.83594,-3.80394 -2.17354,-5.30878 -1.33764,-1.5327 -3.13505,-2.71676 -5.3923,-3.5528 -2.25726,-0.86388 -5.16648,-1.29612 -8.06469,-1.29612 z m 36.43475,0.0223 -16.12232,32.24578 h 6.86507 l 9.25763,-18.51672 9.25799,18.51672 h 6.86509 z m -154.839287,11.08117 c 19.765517,25.21409 29.148577,30.13392 55.086597,39.34062 -0.007,0.001 -0.0117,0.002 -0.0182,0.004 -10.28527,-3.09497 -15.56329,-4.31712 -21.76257,-4.39015 -0.0798,1.20003 0.23629,4.47066 1.3503,6.21703 -14.83678,-2.30307 -30.856595,-22.61785 -34.656502,-41.17122 z m 200.729507,5.16106 v 10.11353 h -10.11353 v 5.85514 h 15.96867 v -5.85514 -10.11353 z m 49.80193,22.01422 v 32.42468 h 6.22445 v -21.53096 l 17.26108,21.53096 h 8.76063 v -32.42468 h -6.22446 v 24.66025 l -11.22814,-14.00557 h -8.56911 v -10.65468 z m 37.0134,0.0894 v 9.49405 h 6.08453 v -4.5928 h 13.00713 c 2.02827,0 3.62619,0.42991 4.79399,1.2898 1.19852,0.83121 1.79756,2.00655 1.79756,3.5257 0,1.4905 -0.59904,2.66581 -1.79756,3.52571 -1.1678,0.85989 -2.76572,1.2898 -4.79399,1.2898 h -9.52114 -9.57052 l 22.23618,17.71352 h 9.70897 l -16.29233,-12.89838 h 3.99189 c 2.42777,0 4.54825,-0.40113 6.36142,-1.2037 1.84384,-0.83123 3.27282,-1.96339 4.28695,-3.39653 1.04485,-1.46181 1.56744,-3.13865 1.56744,-5.03042 0,-1.94908 -0.52259,-3.64033 -1.56744,-5.07347 -1.01413,-1.46182 -2.44311,-2.59397 -4.28695,-3.39654 -1.81317,-0.83122 -3.93365,-1.24674 -6.36142,-1.24674 z m 41.12704,0 v 5.85514 h 6.10049 v -5.85514 z m -173.83259,0.0546 -13.08657,26.17462 -3.03612,6.07153 h 6.86544 18.51525 6.86546 l -3.03615,-6.07153 z m 19.60462,0.0345 v 5.77906 h 6.22445 v -5.77906 z m 26.02875,0 v 32.24654 h 6.22446 v -32.24654 z m -96.88693,3.9e-4 v 32.24577 h 6.22779 v -18.76021 l 9.89492,8.02758 6.72627,-5.45688 9.3968,-7.62598 v -8.43028 l -16.12307,13.08433 z m 125.45855,2.96598 a 13.157047,13.157028 0 0 0 -13.1571,13.15709 13.157047,13.157028 0 0 0 13.1571,13.15709 13.157047,13.157028 0 0 0 13.15708,-13.15709 13.157047,13.157028 0 0 0 -13.15708,-13.15709 z m 99.5556,7.45597 v 21.82382 h 6.22445 v -21.82382 z m -154.14854,1.56448 v 20.25934 h 6.22444 v -14.03489 h 12.85645 v -6.22445 h -12.85645 z m -54.5885,14.4042 v 5.85514 h 15.96867 v -5.85514 z" /></g></g></svg>
