<?xml version="1.0" encoding="UTF-8" standalone="no"?>
<!-- Created with Inkscape (http://www.inkscape.org/) -->

<svg
   width="2000.0001"
   height="589.76282"
   viewBox="0 0 529.16668 156.04141"
   version="1.1"
   id="svg1"
   xml:space="preserve"
   sodipodi:docname="sam-inline.svg"
   inkscape:version="1.4 (86a8ad7, 2024-10-11)"
   xmlns:inkscape="http://www.inkscape.org/namespaces/inkscape"
   xmlns:sodipodi="http://sodipodi.sourceforge.net/DTD/sodipodi-0.dtd"
   xmlns="http://www.w3.org/2000/svg"
   xmlns:svg="http://www.w3.org/2000/svg"><sodipodi:namedview
     id="namedview1"
     pagecolor="#ffffff"
     bordercolor="#000000"
     borderopacity="0.25"
     inkscape:showpageshadow="2"
     inkscape:pageopacity="0.0"
     inkscape:pagecheckerboard="0"
     inkscape:deskcolor="#d1d1d1"
     inkscape:zoom="0.31395539"
     inkscape:cx="1110.0303"
     inkscape:cy="635.44059"
     inkscape:window-width="1920"
     inkscape:window-height="1009"
     inkscape:window-x="1912"
     inkscape:window-y="-8"
     inkscape:window-maximized="1"
     inkscape:current-layer="g16" /><defs
     id="defs1" /><g
     id="layer1"
     transform="translate(-928.30122,-27.28868)"
     style="fill:#cccccc"><g
       id="g16"
       transform="matrix(1.5379421,0,0,1.5379421,796.11906,400.65182)"
       style="fill:#cccccc"><path
         id="path17"
         style="font-weight:500;font-size:25.4px;line-height:0.85;font-family:Unbounded;-inkscape-font-specification:'Unbounded Medium';letter-spacing:0px;fill:#cccccc;stroke-width:0.848578;stroke-linecap:round;stroke-linejoin:round"
         d="M 148.90163 -242.76801 C 145.79626 -242.305 141.55883 -239.16097 139.8354 -235.29816 L 134.29896 -238.15459 L 136.84558 -226.84885 C 134.59228 -219.42401 132.73843 -210.51323 131.90993 -201.61045 C 123.54276 -205.64234 114.84781 -209.01095 104.88664 -211.90009 L 104.9021 -211.89606 L 96.117445 -226.71747 C 94.05726 -224.25376 93.207615 -218.60438 93.612825 -214.84455 L 85.947423 -215.21819 L 94.850686 -206.81122 L 94.816749 -207.03231 C 98.508967 -190.63404 109.07805 -178.26241 120.05582 -170.99118 C 117.24797 -170.31351 114.67046 -169.48705 113.43575 -168.68514 C 115.27891 -165.66453 119.75428 -164.35816 123.90885 -164.36942 C 127.0374 -164.37842 126.78175 -164.38659 128.99806 -164.39059 C 121.7701 -164.39059 120.63669 -163.15072 119.33071 -162.07918 C 119.91456 -160.03528 125.34238 -158.65844 128.61602 -158.6633 C 131.06217 -158.6673 135.90665 -158.69108 137.64495 -158.69388 C 130.57931 -158.69388 129.30391 -157.96249 127.82001 -156.47856 C 128.97603 -154.4013 133.22196 -153.93307 135.20821 -153.93597 L 138.45742 -153.94 L 136.31536 -148.45732 C 139.70851 -144.46801 145.46159 -141.92533 152.10448 -141.30669 L 157.13455 -151.26402 C 150.80396 -151.26402 143.10678 -150.94731 138.46717 -153.94 L 172.70527 -153.98637 C 175.43204 -155.86776 178.88002 -161.20754 179.90295 -165.14023 C 174.70417 -166.71286 170.31027 -168.06553 166.25589 -169.31986 L 168.46448 -173.69203 L 170.67308 -178.06453 L 182.36456 -172.26533 C 184.0125 -178.45382 183.58481 -186.73438 176.43498 -189.47006 L 178.16073 -192.88561 C 175.50623 -197.04896 168.14882 -197.96115 162.29265 -195.91843 C 157.57029 -206.74345 151.44636 -217.19205 145.45349 -226.61835 L 146.37517 -225.19366 L 148.90163 -242.76801 z M 269.64893 -224.70309 L 269.64893 -192.45719 L 275.87722 -192.45719 L 275.87722 -211.21732 L 285.77205 -203.1897 L 292.49796 -208.64684 L 301.89483 -216.27259 L 301.89483 -224.70309 L 285.77205 -211.61851 L 269.64893 -224.70309 z M 213.60209 -224.69032 C 210.62028 -224.69032 208.02832 -224.29995 205.82681 -223.51966 C 203.62528 -222.76725 201.9117 -221.66643 200.68552 -220.21735 C 199.48723 -218.76824 198.88786 -217.01293 198.88786 -214.95073 C 198.88786 -212.33121 199.79381 -210.28306 201.60518 -208.80611 C 203.44441 -207.35701 206.39814 -206.40932 210.46677 -205.96346 L 216.77906 -205.2528 C 219.00843 -205.00201 220.35734 -204.61482 221.14484 -204.07172 C 221.95947 -203.55578 222.36691 -202.8091 222.36691 -201.83154 C 222.36691 -200.58243 221.66107 -199.60486 220.24904 -198.89885 C 218.86417 -198.21998 216.96301 -197.8804 214.54627 -197.8804 C 212.88984 -197.8804 211.42349 -198.08394 210.14723 -198.49127 C 208.89812 -198.92574 207.89352 -199.52319 207.13322 -200.28354 C 206.40006 -201.07103 205.95209 -201.98039 205.78917 -203.01228 L 198.78336 -203.01228 C 198.89197 -200.89423 199.61132 -199.03465 200.94189 -197.4325 C 202.27245 -195.85756 204.09188 -194.62205 206.40004 -193.72597 C 208.70814 -192.85703 211.38298 -192.42225 214.4243 -192.42225 C 217.41129 -192.42225 220.01795 -192.8432 222.2446 -193.68497 C 224.47128 -194.52678 226.19553 -195.7079 227.41748 -197.22854 C 228.66659 -198.77635 229.29141 -200.56877 229.29141 -202.60537 C 229.29141 -204.3161 229.31904 -205.74056 228.56664 -206.88312 C 227.84209 -208.02568 226.61575 -208.93164 224.888 -209.60044 C 223.18808 -210.29711 220.88925 -210.79855 217.99105 -211.10509 L 211.4281 -211.89942 C 209.42165 -212.15023 208.01463 -212.52648 207.20647 -213.02808 C 206.4262 -213.55756 206.03581 -214.29558 206.03581 -215.24306 C 206.03581 -216.46922 206.70483 -217.41686 208.04246 -218.0857 C 209.3801 -218.75449 211.17748 -219.08903 213.43475 -219.08903 C 215.05103 -219.08903 216.78973 -218.89386 217.98803 -218.5037 C 219.18633 -218.14144 220.12018 -217.61171 220.78901 -216.91504 C 221.48569 -216.24621 221.90336 -215.45234 222.04266 -214.53273 L 229.23261 -214.53273 C 229.12114 -216.56702 228.39656 -218.33652 227.05896 -219.84136 C 225.72132 -221.37406 223.92392 -222.55829 221.66667 -223.39433 C 219.40941 -224.25821 216.5003 -224.69032 213.60209 -224.69032 z M 250.03702 -224.66814 L 233.91458 -192.42225 L 240.7796 -192.42225 L 250.03736 -210.9391 L 259.29511 -192.42225 L 266.16047 -192.42225 L 250.03702 -224.66814 z M 295.92695 -208.42574 L 295.92695 -198.31251 L 285.81371 -198.31251 L 285.81371 -192.45719 L 301.78226 -192.45719 L 301.78226 -198.31251 L 301.78226 -208.42574 L 295.92695 -208.42574 z M 345.72904 -186.4117 L 345.72904 -153.98704 L 351.95363 -153.98704 L 351.95363 -175.51791 L 369.21448 -153.98704 L 377.97528 -153.98704 L 377.97528 -186.4117 L 371.75069 -186.4117 L 371.75069 -161.75123 L 360.52257 -175.75681 L 351.95363 -175.75681 L 351.95363 -186.4117 L 345.72904 -186.4117 z M 382.74225 -186.32232 L 382.74225 -176.82835 L 388.82706 -176.82835 L 388.82706 -181.42094 L 401.83402 -181.42094 C 403.86229 -181.42094 405.46041 -180.99122 406.62821 -180.13133 C 407.82673 -179.30012 408.42553 -178.12472 408.42553 -176.60557 C 408.42553 -175.11507 407.82673 -173.93972 406.62821 -173.07982 C 405.46041 -172.21993 403.86229 -171.78987 401.83402 -171.78987 L 392.31283 -171.78987 L 382.74225 -171.78987 L 404.97874 -154.07642 L 414.68742 -154.07642 L 398.39529 -166.97485 L 402.38709 -166.97485 C 404.81486 -166.97485 406.93527 -167.37587 408.74844 -168.17844 C 410.59228 -169.00967 412.02146 -170.14202 413.03559 -171.57516 C 414.08044 -173.03697 414.60308 -174.7138 414.60308 -176.60557 C 414.60308 -178.55465 414.08044 -180.24585 413.03559 -181.67899 C 412.02146 -183.14081 410.59228 -184.27281 408.74844 -185.07538 C 406.93527 -185.9066 404.81486 -186.32232 402.38709 -186.32232 L 382.74225 -186.32232 z M 423.86957 -186.32232 L 423.86957 -180.467 L 429.96984 -180.467 L 429.96984 -186.32232 L 423.86957 -186.32232 z M 324.24186 -186.28065 C 315.31089 -186.28069 308.07098 -179.04045 308.07103 -170.10949 C 308.07098 -161.17853 315.31089 -153.93862 324.24186 -153.93866 C 333.17283 -153.93863 340.41274 -161.17854 340.41269 -170.10949 C 340.41274 -179.04044 333.17283 -186.28068 324.24186 -186.28065 z M 250.03702 -186.26755 L 236.95043 -160.09302 L 233.91424 -154.02165 L 240.7796 -154.02165 L 259.29478 -154.02165 L 266.16047 -154.02165 L 263.12428 -160.09302 L 250.03702 -186.26755 z M 269.64154 -186.23328 L 269.64154 -180.45424 L 275.86579 -180.45424 L 275.86579 -186.23328 L 269.64154 -186.23328 z M 295.67024 -186.23328 L 295.67024 -153.98671 L 301.89483 -153.98671 L 301.89483 -186.23328 L 295.67024 -186.23328 z M 198.78336 -186.2326 L 198.78336 -153.98704 L 205.01098 -153.98704 L 205.01098 -172.74717 L 214.90614 -164.71955 L 221.63239 -170.17635 L 231.02926 -177.80244 L 231.02926 -186.2326 L 214.90614 -173.14836 L 198.78336 -186.2326 z M 324.24186 -181.21194 C 330.37346 -181.21196 335.34402 -176.24109 335.34398 -170.10949 C 335.34402 -163.9779 330.37346 -159.00735 324.24186 -159.00737 C 318.11025 -159.00734 313.13971 -163.9779 313.13975 -170.10949 C 313.13971 -176.24109 318.11025 -181.21197 324.24186 -181.21194 z M 423.79733 -175.81091 L 423.79733 -153.98704 L 430.02192 -153.98704 L 430.02192 -175.81091 L 423.79733 -175.81091 z M 324.24186 -174.53239 C 321.79933 -174.5324 319.81927 -172.55203 319.81929 -170.10949 C 319.81927 -167.66696 321.79933 -165.68691 324.24186 -165.68692 C 326.6844 -165.68692 328.66445 -167.66696 328.66443 -170.10949 C 328.66445 -172.55203 326.6844 -174.53239 324.24186 -174.53239 z M 269.64893 -174.24645 L 269.64893 -153.98704 L 275.87352 -153.98704 L 275.87352 -168.02186 L 288.72995 -168.02186 L 288.72995 -174.24645 L 275.87352 -174.24645 L 269.64893 -174.24645 z M 215.06037 -159.84202 L 215.06037 -153.98704 L 231.02926 -153.98704 L 231.02926 -159.84202 L 215.06037 -159.84202 z " /></g></g></svg>
