<?xml version="1.0" encoding="UTF-8" standalone="no"?>
<!-- Created with Inkscape (http://www.inkscape.org/) -->

<svg
   width="1280"
   height="1280"
   viewBox="0 0 338.66666 338.66667"
   version="1.1"
   id="svg1"
   xml:space="preserve"
   xmlns="http://www.w3.org/2000/svg"
   xmlns:svg="http://www.w3.org/2000/svg"><defs
     id="defs1" /><g
     id="layer1"
     transform="translate(-579.63453,6.9464287)"
     style="fill:#cccccc"><path
       id="path17"
       style="opacity:1;fill:#cccccc;fill-opacity:1;stroke-width:2.30845;stroke-linecap:round;stroke-linejoin:round"
       d="M 792.59193,1.9528524 C 782.49869,3.4577204 768.72628,13.675996 763.12448,26.230957 l -17.99529,-9.283671 8.27753,36.746594 c -7.32348,24.13233 -13.34948,53.09371 -16.04191,82.02962 -27.19537,-13.10449 -55.4558,-24.05313 -87.83185,-33.44344 l 0.0501,0.0124 -28.55227,-48.172766 c -6.69601,8.007667 -9.45759,26.369135 -8.14058,38.589375 l -24.91425,-1.214913 28.93726,27.324944 -0.11111,-0.71778 c 12.00028,53.29793 46.35226,93.50707 82.0322,117.14013 -9.126,2.20261 -17.50383,4.88877 -21.51703,7.49515 5.99054,9.81762 20.5366,14.06417 34.03978,14.02757 10.16875,-0.0284 9.33855,-0.0561 16.54215,-0.0687 -23.49256,0 -27.17606,4.03001 -31.42083,7.51272 1.89762,6.64307 19.53797,11.11795 30.17801,11.10217 7.95033,-0.0126 23.69649,-0.0897 29.34653,-0.0992 -22.96483,0 -27.10986,2.37649 -31.93294,7.19956 3.75757,6.75159 17.55789,8.27407 24.01404,8.26461 l 10.55956,-0.0145 -6.96185,17.81958 c 11.0285,12.9661 29.72761,21.22921 51.31832,23.23993 l 16.34835,-32.36237 c -20.57542,0 -45.59332,1.02978 -60.67278,-8.69714 l 111.28106,-0.15038 c 8.86281,-6.1149 20.06968,-23.47097 23.39444,-36.25308 -16.89739,-5.11144 -31.17823,-9.50839 -44.35595,-13.58522 l 7.17889,-14.21102 7.17838,-14.21102 37.99923,18.84846 c 5.35626,-20.11395 3.96689,-47.0275 -19.2717,-55.91906 l 5.60793,-11.10113 c -8.62727,-13.53164 -32.54085,-16.49604 -51.57463,-9.85677 -15.34865,-35.1831 -35.25302,-69.142955 -54.73102,-99.780469 l 2.99568,4.629692 z" /></g></svg>
