<?xml version="1.0" encoding="UTF-8" standalone="no"?>
<!-- Created with Inkscape (http://www.inkscape.org/) -->

<svg
   width="816.28491"
   height="179.6731"
   viewBox="0 0 215.97538 47.538507"
   version="1.1"
   id="svg1"
   sodipodi:docname="sam-inline.svg"
   inkscape:version="1.3.2 (091e20ef0f, 2023-11-25)"
   xml:space="preserve"
   xmlns:inkscape="http://www.inkscape.org/namespaces/inkscape"
   xmlns:sodipodi="http://sodipodi.sourceforge.net/DTD/sodipodi-0.dtd"
   xmlns="http://www.w3.org/2000/svg"
   xmlns:svg="http://www.w3.org/2000/svg"><sodipodi:namedview
     id="namedview1"
     pagecolor="#ffffff"
     bordercolor="#000000"
     borderopacity="0.25"
     inkscape:showpageshadow="2"
     inkscape:pageopacity="0.0"
     inkscape:pagecheckerboard="0"
     inkscape:deskcolor="#d1d1d1"
     inkscape:document-units="mm"
     inkscape:zoom="1"
     inkscape:cx="366"
     inkscape:cy="131.5"
     inkscape:window-width="1920"
     inkscape:window-height="939"
     inkscape:window-x="1920"
     inkscape:window-y="32"
     inkscape:window-maximized="1"
     inkscape:current-layer="text5"
     showguides="false"><inkscape:page
       x="1.2922641e-06"
       y="7.4589207e-07"
       width="215.97537"
       height="47.538506"
       id="page1"
       margin="0"
       bleed="0" /></sodipodi:namedview><defs
     id="defs1" /><g
     inkscape:label="Camada 1"
     inkscape:groupmode="layer"
     id="layer1"
     transform="translate(-126.43399,82.741211)"><g
       id="text5"
       style="font-size:13.8638px;line-height:0.8;font-family:'Major Mono Display';-inkscape-font-specification:'Major Mono Display';fill:#8264e6;stroke-width:1.44415"
       aria-label="SAM&#10;MAHONRI"><path
         id="path6"
         d="m 147.75328,-82.741204 -4.55491,1.343716 4.67585,2.1504 7.55119,16.000351 6.04349,0.683895 -6.08794,-11.548756 10.87693,7.163041 -3.26548,-6.346824 z m 10.78442,12.042643 5.35514,9.6615 2.35691,-1.064141 2.99067,-1.382282 z m 7.71205,8.597359 -5.21942,4.185381 0.55179,10.75572 5.88237,7.532714 -7.01871,-6.573538 -0.18289,-2.413196 -7.28515,5.344967 8.97084,0.04184 -3.74104,3.776181 5.99358,-0.07635 1.12918,3.822362 2.10245,-3.86362 0.0493,-0.0013 1.28721,4.367345 2.8044,-4.418761 15.67269,-0.200094 3.79516,-8.172717 -7.53019,-2.149513 -1.30611,-4.834772 1.0345,-3.042233 -2.58157,-1.652812 -6.39918,1.779866 -2.17321,7.070484 3.35185,7.282513 -7.46131,-2.160175 3.65143,5.994095 -5.64394,-6.570231 0.0312,-1.883509 9.4226,4.61982 -5.02781,-7.568692 2.3214,-10.042904 7.92695,1.478728 2.59873,-4.683584 0.67565,1.365787 3.71872,7.500907 0.3117,6.318052 1.41141,-6.705786 -1.95347,-9.243274 -8.66666,-1.549194 -1.89263,2.145085 -1.70859,1.926083 0.21332,-3.459901 -10.47241,-6.205109 4.43945,8.738709 2.17884,-1.007821 -3.56478,3.308033 -1.93182,13.060438 z m 17.6828,-0.890174 -3.27438,3.317797 3.42662,0.488134 -0.57342,9.041677 3.25349,-5.270495 z m -30.95481,19.722222 3.7017,-4.358068 -4.45195,0.407051 -22.20532,-12.649617 21.40947,16.572186 z m -22.95557,-16.600634 4.12008,-0.576207 25.12433,5.919584 -8.139,2.263347 9.13531,3.648944 -0.79335,-10.425561 4.42036,-1.996543 -29.37964,-1.944482 -8.07627,2.246792 3.58699,0.86446 z m 80.82677,-22.576555 c -1.32656,-0.02355 -2.71536,0.234079 -3.91761,0.7037 -1.18346,0.469625 -2.13144,1.183526 -2.84526,2.141562 -0.71382,0.939247 -1.07131,2.085107 -1.07131,3.437627 0,1.35252 0.35749,2.441991 1.07131,3.268528 0.71382,0.82654 1.59688,1.446809 2.64887,1.86008 1.05195,0.394485 2.30101,0.732813 3.74744,1.014587 0.13151,0.01881 0.47836,0.08476 1.0419,0.197458 0.56355,0.09393 1.12746,0.263088 1.69098,0.507293 0.58234,0.244206 0.87386,0.637873 0.87386,1.182637 0,0.657474 -0.28193,1.145822 -0.84548,1.465166 -0.56354,0.31935 -1.33385,0.478936 -2.31066,0.478936 -1.18346,0 -2.10378,-0.280889 -2.76125,-0.84444 -0.65752,-0.563549 -0.97617,-1.380652 -0.95787,-2.451397 h -4.59296 c -0.0187,2.573545 0.70472,4.507787 2.16992,5.803951 1.48401,1.277379 3.58743,1.915745 6.31125,1.915745 1.42764,0 2.75225,-0.253223 3.97328,-0.760417 1.23981,-0.525978 2.23564,-1.277122 2.98704,-2.253941 0.75142,-0.976818 1.12698,-2.141824 1.12698,-3.494344 0,-1.427657 -0.34792,-2.536274 -1.04295,-3.325245 -0.69505,-0.788971 -1.52173,-1.333705 -2.47976,-1.634265 -0.93926,-0.319345 -2.25425,-0.648101 -3.94492,-0.98623 -1.03316,-0.225422 -1.88752,-0.478642 -2.56378,-0.760415 -0.67626,-0.281776 -1.01459,-0.723308 -1.01459,-1.324428 0,-0.544765 0.25427,-0.976723 0.76147,-1.296068 0.50719,-0.31935 1.22004,-0.478937 2.14051,-0.478937 1.14588,0 1.99172,0.244699 2.53648,0.733109 0.54477,0.469624 0.81712,1.211193 0.81712,2.225582 h 4.59297 c 0,-4.31648 -3.03848,-7.235208 -8.14298,-7.325834 z m 20.96396,0.140746 -9.24263,20.034447 h 18.48422 z m 12.93339,0.393861 v 19.612229 h 15.83534 v -19.612229 h -1.0419 l -6.81959,12.116248 -6.84689,-12.116248 z m 28.76872,22.035268 c -1.48401,0 -2.85543,0.365998 -4.11402,1.098612 -1.23981,0.732615 -2.22607,1.728456 -2.95868,2.98705 -0.73261,1.258592 -1.09862,2.620434 -1.09862,4.08566 v 4.339834 c 0,1.465232 0.36601,2.82707 1.09862,4.085664 0.73261,1.258594 1.71887,2.253383 2.95868,2.985999 1.25859,0.732614 2.63001,1.099662 4.11402,1.099662 1.48403,0 2.84585,-0.367048 4.08566,-1.099662 1.25861,-0.732616 2.25444,-1.727405 2.98707,-2.985999 0.73259,-1.258594 1.09859,-2.620432 1.09859,-4.085664 v -4.339834 c 0,-1.465226 -0.366,-2.827068 -1.09859,-4.08566 -0.73263,-1.258594 -1.72846,-2.254435 -2.98707,-2.98705 -1.23981,-0.732614 -2.60163,-1.098612 -4.08566,-1.098612 z m -41.70211,0.112387 -9.24263,20.034446 h 18.48422 z m -28.76978,0.394911 v 19.611177 h 15.83639 V -59.36917 h -1.04293 l -6.81855,12.116246 -6.84793,-12.116246 z m 83.6878,0 v 19.611177 h 15.83537 V -59.36917 h -1.04297 v 13.32829 l -13.69379,-13.32829 z m -41.61807,0.02836 v 19.611175 h 1.04189 v -13.018451 c 2.34812,0 4.51749,0.583028 6.5087,1.747695 2.01,1.164671 3.59738,2.752063 4.76207,4.762056 1.16465,1.991209 1.74768,4.160575 1.74768,6.5087 h 1.0419 V -59.34081 h -1.0419 v 14.313469 c -0.69505,-1.709434 -1.69091,-3.221291 -2.98706,-4.536239 -1.29615,-1.333735 -2.80802,-2.366817 -4.53623,-3.099433 -1.72822,-0.751397 -3.5603,-1.12697 -5.49516,-1.12697 v -5.550827 z m 63.14501,0 v 19.611175 h 15.07492 l -4.98681,-6.960328 c 1.37131,-0.375702 2.50759,-1.136415 3.40925,-2.2823 0.90169,-1.164667 1.35281,-2.479692 1.35281,-3.944922 0,-1.183454 -0.28197,-2.263352 -0.8455,-3.240172 -0.56354,-0.976819 -1.35299,-1.747106 -2.36738,-2.310655 -1.03317,-0.582337 -2.36628,-0.872798 -4.00058,-0.872798 z m 21.47125,0 v 4.958458 h 5.83336 v 9.693207 h -5.83336 v 4.95951 h 12.68024 v -4.95951 h -5.83336 v -9.693207 h 5.83336 v -4.958458 z m -19.69626,1.041895 h 5.89007 c 1.33372,0 2.41363,0.207458 3.24018,0.620727 0.92047,0.450839 1.63436,1.098779 2.14156,1.944102 0.50718,0.845325 0.76042,1.783729 0.76042,2.816901 0,1.296165 -0.41282,2.443074 -1.23935,3.438679 -0.82654,0.995604 -1.8692,1.624397 -3.12781,1.887386 z m -0.73206,0.676392 7.2418,10.115426 h -7.2418 z m 7.9455,11.130016 4.11403,5.719926 h -12.05953 v -5.691569 h 7.07271 z"
         sodipodi:nodetypes="cccccccccccccccccccccccccccccccccccccccccccccccccccccccccccccccccccccccccccccccccccccaccssccccsssscccscsssccsssscccaccccsccccccscsssscscsssscscccccccccccccccccccccccccccccccccccccccccsscscccccccccccccccccsssccccccccccccc"
         inkscape:export-filename="..\public\sam-inline.svg"
         inkscape:export-xdpi="96"
         inkscape:export-ydpi="96"
         style="fill:#f9f9f9" /></g></g></svg>
