<?xml version="1.0" encoding="UTF-8" standalone="no"?>
<!-- Created with Inkscape (http://www.inkscape.org/) -->

<svg
   width="1280"
   height="1280"
   viewBox="0 0 338.66666 338.66667"
   version="1.1"
   id="svg1"
   xml:space="preserve"
   sodipodi:docname="sam-logo.svg"
   inkscape:version="1.4 (86a8ad7, 2024-10-11)"
   xmlns:inkscape="http://www.inkscape.org/namespaces/inkscape"
   xmlns:sodipodi="http://sodipodi.sourceforge.net/DTD/sodipodi-0.dtd"
   xmlns="http://www.w3.org/2000/svg"
   xmlns:svg="http://www.w3.org/2000/svg"><sodipodi:namedview
     id="namedview1"
     pagecolor="#ffffff"
     bordercolor="#000000"
     borderopacity="0.25"
     inkscape:showpageshadow="2"
     inkscape:pageopacity="0.0"
     inkscape:pagecheckerboard="0"
     inkscape:deskcolor="#d1d1d1"
     inkscape:zoom="0.15761719"
     inkscape:cx="-288.6741"
     inkscape:cy="885.05576"
     inkscape:window-width="1920"
     inkscape:window-height="1009"
     inkscape:window-x="1912"
     inkscape:window-y="-8"
     inkscape:window-maximized="1"
     inkscape:current-layer="svg1"><inkscape:page
       x="0"
       y="0"
       width="338.66666"
       height="338.66666"
       id="page2"
       margin="0"
       bleed="0" /></sodipodi:namedview><defs
     id="defs1" /><path
     d="m 212.73837,10.869376 c -10.02405,1.494577 -23.70236,11.643423 -29.26553,24.112445 l -17.87148,-9.220465 8.22042,36.494593 c -5.61566,18.504148 -10.41788,39.878361 -13.56655,61.881461 20.57835,17.2526 36.86404,34.84298 53.14041,53.0808 -18.34252,-11.69613 -36.34495,-24.52568 -55.506,-33.49343 -27.00898,-13.01482 -55.07602,-23.8886 -87.230386,-33.21466 l 0.04995,0.0126 -28.35661,-47.843064 C 35.702372,70.632434 32.959753,88.86845 34.26776,101.00509 L 9.524052,99.798982 38.26352,126.93643 38.153958,126.22277 c 11.918356,52.93313 46.035075,92.8684 81.470992,116.33971 -9.06366,2.18751 -17.38378,4.85529 -21.369384,7.44384 5.949654,9.75043 20.396024,13.96736 33.806854,13.93101 10.09887,-0.0289 9.27363,-0.0556 16.42783,-0.0684 -23.33166,0 -26.99027,4.00227 -31.20594,7.46115 1.88466,6.59766 19.4055,11.04205 29.97271,11.02638 7.8961,-0.0126 23.53395,-0.0899 29.14511,-0.0989 -22.80766,0 -26.92462,2.36089 -31.71459,7.15098 3.73159,6.70534 17.43732,8.21678 23.84888,8.20741 l 121.03943,-0.16266 c 8.80192,-6.07307 19.93192,-23.30975 23.23389,-36.00435 -16.78151,-5.0764 -30.96487,-9.44278 -44.05232,-13.49172 l -7.20521,12.47866 c -9.41777,-6.20488 -22.4912,-8.47643 -32.82744,-8.79525 5.98413,-5.98412 21.79787,-8.56939 40.03265,-3.68341 l 7.12928,-14.11324 7.1293,-14.1143 37.73975,18.71964 c 5.3195,-19.97627 3.93893,-46.70567 -19.14051,-55.53635 l 5.57067,-11.0253 C 298.61726,158.44849 274.86775,155.50395 255.96421,162.0978 240.72056,127.15497 220.95269,93.42719 201.6079,62.999376 l 2.97515,4.598856 z"
     style="font-weight:500;font-size:25.4px;line-height:0.85;font-family:Unbounded;-inkscape-font-specification:'Unbounded Medium';letter-spacing:0px;fill:#cccccc;stroke-width:2.73917;stroke-linecap:round;stroke-linejoin:round"
     id="path1" /></svg>
