<?xml version="1.0" encoding="UTF-8" standalone="no"?>
<!-- Created with Inkscape (http://www.inkscape.org/) -->

<svg
   width="191.01624"
   height="166.1743"
   viewBox="0 0 50.539711 43.966951"
   version="1.1"
   id="svg1"
   sodipodi:docname="prototipo.svg"
   inkscape:version="1.3 (0e150ed6c4, 2023-07-21)"
   xml:space="preserve"
   xmlns:inkscape="http://www.inkscape.org/namespaces/inkscape"
   xmlns:sodipodi="http://sodipodi.sourceforge.net/DTD/sodipodi-0.dtd"
   xmlns="http://www.w3.org/2000/svg"
   xmlns:svg="http://www.w3.org/2000/svg"><sodipodi:namedview
     id="namedview1"
     pagecolor="#ffffff"
     bordercolor="#000000"
     borderopacity="0.25"
     inkscape:showpageshadow="2"
     inkscape:pageopacity="0.0"
     inkscape:pagecheckerboard="0"
     inkscape:deskcolor="#d1d1d1"
     inkscape:document-units="mm"
     inkscape:zoom="0.88004032"
     inkscape:cx="607.35854"
     inkscape:cy="274.41924"
     inkscape:window-width="1920"
     inkscape:window-height="1009"
     inkscape:window-x="1912"
     inkscape:window-y="-8"
     inkscape:window-maximized="1"
     inkscape:current-layer="layer1"
     showguides="false"><inkscape:page
       x="-1.1472106e-06"
       y="9.231531e-07"
       width="50.539711"
       height="43.966949"
       id="page1"
       margin="0"
       bleed="0" /></sodipodi:namedview><defs
     id="defs1" /><g
     inkscape:label="Camada 1"
     inkscape:groupmode="layer"
     id="layer1"
     transform="translate(-138.00354,83.161072)"><path
       id="path1"
       style="opacity:1;fill:#8264e6;fill-opacity:1;fill-rule:evenodd;stroke-width:0.368684"
       d="m 156.38535,-83.120288 4.00905,-0.04077 10.1961,11.186944 1.18758,5.908054 -7.18055,-8.326972 2.27951,10.783556 -4.74999,-1.949931 -2.44088,-14.736186 z m -18.3818,12.912931 7.07718,0.03863 23.41024,8.357679 -4.0506,0.601566 -1.76084,8.649239 -6.57672,-5.070894 7.13173,0.03957 -19.03758,-10.603966 -3.47886,-0.482642 -0.001,1.63e-4 z m 2.71455,1.529194 15.1145,15.396125 3.70886,0.696491 -4.01141,2.68512 -1.24888,-0.379931 z m 14.81195,18.777736 7.14948,-2.659831 -0.40832,2.002297 4.18326,6.957448 -3.03929,-7.474612 2.03383,-8.861976 5.20414,-2.194731 -3.40528,11.263548 4.5817,-10.160444 3.65862,-1.864255 -2.00209,0.315734 -1.58904,-8.12083 7.0731,7.455607 -0.97171,2.760169 1.83175,-1.170001 2.03201,-1.305069 6.68104,3.257783 -0.54656,7.956817 -2.69336,5.120321 1.20482,-5.202634 -1.28935,-6.949443 -0.23392,-1.265025 -3.19081,3.203588 -6.09606,-3.029762 -4.20241,7.620548 2.3368,7.306232 -6.58636,-5.925455 -0.4597,1.52217 3.06716,6.637872 -1.58233,-5.710046 5.56123,3.475459 -1.04178,-6.687223 3.39607,-5.240893 5.60738,0.03111 1.71535,1.938257 -1.54227,2.231583 -0.0546,4.227677 5.61913,3.48323 -4.96759,5.761098 -12.77394,-3.453173 -3.29693,2.941307 -0.038,-3.843876 -0.0399,-0.01008 -2.59912,2.652181 -0.0352,-3.364359 -4.88491,-1.320936 3.90949,-2.203309 z m 26.38231,1.461979 2.5517,-7.210371 -2.67004,-1.187146 3.42478,-1.938564 0.55167,6.806442 z m -11.25921,-13.693384 -2.1598,0.320443 -2.11978,-9.081613 7.02724,8.32866 z" /></g></svg>
