<?xml version="1.0" encoding="UTF-8" standalone="no"?>
<!-- Created with Inkscape (http://www.inkscape.org/) -->

<svg
   width="1280"
   height="720"
   viewBox="0 0 338.66666 190.5"
   version="1.1"
   id="svg1"
   sodipodi:docname="prototipo.svg"
   inkscape:version="1.3 (0e150ed6c4, 2023-07-21)"
   xml:space="preserve"
   xmlns:inkscape="http://www.inkscape.org/namespaces/inkscape"
   xmlns:sodipodi="http://sodipodi.sourceforge.net/DTD/sodipodi-0.dtd"
   xmlns:xlink="http://www.w3.org/1999/xlink"
   xmlns="http://www.w3.org/2000/svg"
   xmlns:svg="http://www.w3.org/2000/svg"><sodipodi:namedview
     id="namedview1"
     pagecolor="#ffffff"
     bordercolor="#000000"
     borderopacity="0.25"
     inkscape:showpageshadow="2"
     inkscape:pageopacity="0.0"
     inkscape:pagecheckerboard="0"
     inkscape:deskcolor="#d1d1d1"
     inkscape:document-units="mm"
     inkscape:zoom="0.88004032"
     inkscape:cx="607.35854"
     inkscape:cy="274.41924"
     inkscape:window-width="1920"
     inkscape:window-height="1009"
     inkscape:window-x="1912"
     inkscape:window-y="-8"
     inkscape:window-maximized="1"
     inkscape:current-layer="layer1"
     showguides="false"><inkscape:page
       x="0"
       y="0"
       width="338.66666"
       height="190.5"
       id="page19"
       margin="0"
       bleed="0" /><inkscape:page
       x="0"
       y="205.30627"
       width="338.66666"
       height="190.5"
       id="page20"
       margin="0"
       bleed="0" /></sodipodi:namedview><defs
     id="defs1"><linearGradient
       id="linearGradient83"
       inkscape:collect="always"><stop
         style="stop-color:#8065e2;stop-opacity:1;"
         offset="0.61052632"
         id="stop83" /><stop
         style="stop-color:#8065e2;stop-opacity:0;"
         offset="1"
         id="stop84" /></linearGradient><inkscape:path-effect
       effect="powerstroke"
       id="path-effect32"
       is_visible="true"
       lpeversion="1.3"
       scale_width="1"
       interpolator_type="CentripetalCatmullRom"
       interpolator_beta="0.75"
       start_linecap_type="round"
       end_linecap_type="round"
       offset_points="194.74235,2.871997 | 764.12069,3.8747363"
       linejoin_type="spiro"
       miter_limit="4"
       not_jump="true"
       sort_points="true"
       message="&lt;b&gt;Ctrl + clique&lt;/b&gt; no nó existente e mova-o" /><inkscape:path-effect
       effect="simplify"
       id="path-effect31"
       is_visible="true"
       lpeversion="1.3"
       threshold="0.012"
       steps="1"
       smooth_angles="0"
       helper_size="0"
       simplify_individual_paths="false"
       simplify_just_coalesce="false"
       step="1" /><inkscape:path-effect
       effect="powerstroke"
       id="path-effect30"
       is_visible="true"
       lpeversion="1.3"
       scale_width="1"
       interpolator_type="CentripetalCatmullRom"
       interpolator_beta="0.75"
       start_linecap_type="round"
       end_linecap_type="round"
       offset_points="29.642938,1.1995033 | 252.80281,2.0168305"
       linejoin_type="spiro"
       miter_limit="4"
       not_jump="true"
       sort_points="true"
       message="&lt;b&gt;Ctrl + clique&lt;/b&gt; no nó existente e mova-o" /><inkscape:path-effect
       effect="simplify"
       id="path-effect29"
       is_visible="true"
       lpeversion="1.3"
       threshold="0.012"
       steps="1"
       smooth_angles="0"
       helper_size="0"
       simplify_individual_paths="false"
       simplify_just_coalesce="false"
       step="1" /><inkscape:path-effect
       effect="powerstroke"
       id="path-effect28"
       is_visible="true"
       lpeversion="1.3"
       scale_width="1"
       interpolator_type="CentripetalCatmullRom"
       interpolator_beta="0.75"
       start_linecap_type="round"
       end_linecap_type="round"
       offset_points="49.966782,2.0281823 | 381.01882,3.2995802"
       linejoin_type="spiro"
       miter_limit="4"
       not_jump="true"
       sort_points="true"
       message="&lt;b&gt;Ctrl + clique&lt;/b&gt; no nó existente e mova-o" /><inkscape:path-effect
       effect="simplify"
       id="path-effect27"
       is_visible="true"
       lpeversion="1.3"
       threshold="0.012"
       steps="1"
       smooth_angles="0"
       helper_size="0"
       simplify_individual_paths="false"
       simplify_just_coalesce="false"
       step="1" /><radialGradient
       inkscape:collect="always"
       xlink:href="#linearGradient83"
       id="radialGradient84"
       cx="169.33333"
       cy="98.793144"
       fx="169.33333"
       fy="98.793144"
       r="108.32093"
       gradientTransform="matrix(1,0,0,0.87516404,0,8.7897935)"
       gradientUnits="userSpaceOnUse" /><filter
       inkscape:collect="always"
       style="color-interpolation-filters:sRGB"
       id="filter88"
       x="-0.037899998"
       y="-0.5473399"
       width="1.0758"
       height="2.0946798"><feGaussianBlur
         inkscape:collect="always"
         stdDeviation="5.3481105"
         id="feGaussianBlur88" /></filter></defs><g
     inkscape:label="Camada 1"
     inkscape:groupmode="layer"
     id="layer1"><rect
       style="fill:#1e1e24;stroke-width:1.34549;fill-opacity:1"
       id="rect1"
       width="338.66666"
       height="190.5"
       x="0"
       y="0" /><path
       id="path73"
       style="opacity:0.3681592;fill:none;fill-opacity:1;stroke:url(#radialGradient84);stroke-width:0.410801;stroke-dasharray:none;stroke-opacity:1"
       d="m 221.14174,-24.181715 -17.14831,0.02252 -43.05751,48.347708 -4.78849,25.326829 30.3009,-35.967347 -9.21844,46.232788 20.21939,-8.573508 9.71411,-63.145894 z m 79.2536,54.323128 -30.26685,0.513534 -99.71295,36.897455 17.35395,2.373521 7.95649,36.905637 27.87879,-22.011624 -30.50007,0.52042 80.90081,-46.289488 14.85508,-2.235454 0.005,6.45e-4 z m -11.53475,6.673873 -63.88625,66.592154 -15.82827,3.16137 17.28869,11.28664 5.32284,-1.68631 z m -62.42583,81.040164 -30.70878,-11.02403 1.84498,8.5437 -17.54906,29.96235 12.63088,-32.11804 -9.13473,-37.801976 -22.36581,-9.130595 15.11852,48.005931 -20.09576,-43.230121 -15.73937,-7.793243 8.57845,1.251837 6.39645,-34.810495 -29.88427,32.235293 4.29169,11.757253 -7.89177,-4.913879 -8.75498,-5.481696 -28.413985,14.262165 2.72914,34.003866 11.771347,21.76674 -5.408917,-22.19195 5.172317,-29.785814 0.93819,-5.421972 13.804488,13.544562 25.92356,-13.258202 18.3484,32.385826 -9.63478,31.36327 27.87781,-25.66698 2.04106,6.48759 -12.79123,28.54073 6.48648,-24.4994 -23.61412,15.13806 4.12668,-28.65213 -14.78291,-22.247784 -23.98095,0.4093 -7.2408,8.37422 6.70589,9.468384 0.44167,18.07889 -23.861245,15.17408 21.529725,24.39533 54.46343,-15.39759 14.24533,12.41751 -0.0281,-16.44195 0.1702,-0.0422 11.24683,11.21533 -0.0139,-14.39091 20.82745,-5.88995 -16.82904,-9.23095 z m -112.76339,7.55139 -11.26848,-30.712744 11.36118,-5.20876 -14.742968,-8.12259 -2.024307,29.137814 z m 47.48087,-59.119981 9.25318,1.26421 8.61909,-38.945828 -29.64516,35.967026 z" /><rect
       style="fill:#8065e2;fill-opacity:1;stroke:none;stroke-width:0.265296;stroke-dasharray:none;stroke-opacity:1"
       id="rect77"
       width="49.282051"
       height="11.093815"
       x="144.69231"
       y="130.64696" /><rect
       style="fill:#1f1c24;fill-opacity:1;stroke:#8065e2;stroke-width:0.26458333;stroke-dasharray:none;stroke-opacity:1"
       id="rect21"
       width="49.017471"
       height="11.093815"
       x="144.8246"
       y="129.39682" /><text
       xml:space="preserve"
       style="font-style:normal;font-variant:normal;font-weight:normal;font-stretch:normal;font-size:13.8638px;font-family:'Major Mono Display';-inkscape-font-specification:'Major Mono Display';text-align:center;text-anchor:middle;fill:#ffffff;stroke-width:1.44415"
       x="169.81865"
       y="103.9203"
       id="text1"><tspan
         sodipodi:role="line"
         style="fill:#ffffff;stroke-width:1.44415"
         x="169.81865"
         y="103.9203"
         id="tspan12">SAM MAHONRI</tspan></text><path
       style="fill:none;fill-opacity:0.639742;stroke:#54e088;stroke-width:0.26458333;stroke-opacity:1;stroke-dasharray:0.79374996, 0.79374996;stroke-dashoffset:0"
       d="M 66.595963,0 V 190.5"
       id="path22" /><path
       style="fill:none;fill-opacity:0.639742;stroke:#54e088;stroke-width:0.264583;stroke-dasharray:0.79375, 0.79375;stroke-dashoffset:0;stroke-opacity:1"
       d="M 272.0707,0 V 190.5"
       id="path23" /><text
       xml:space="preserve"
       style="font-style:normal;font-variant:normal;font-weight:normal;font-stretch:normal;font-size:4.87042px;font-family:'Major Mono Display';-inkscape-font-specification:'Major Mono Display';text-align:center;text-anchor:middle;fill:#54e088;fill-opacity:1;stroke-width:0.507337"
       x="236.55003"
       y="13.833787"
       id="text37"><tspan
         sodipodi:role="line"
         style="fill:#54e088;fill-opacity:1;stroke-width:0.507337"
         x="236.55003"
         y="13.833787"
         id="tspan37">HOBBIES</tspan></text><text
       xml:space="preserve"
       style="font-style:normal;font-variant:normal;font-weight:normal;font-stretch:normal;font-size:4.87042px;font-family:'Major Mono Display';-inkscape-font-specification:'Major Mono Display';text-align:center;text-anchor:middle;fill:#50f096;fill-opacity:1;stroke-width:0.507337"
       x="197.36577"
       y="13.833787"
       id="text38"><tspan
         sodipodi:role="line"
         style="fill:#50f096;fill-opacity:1;stroke-width:0.507337"
         x="197.36577"
         y="13.833787"
         id="tspan38">TRABALHOS</tspan></text><path
       id="path38"
       style="opacity:1;fill:#54e088;fill-opacity:1;stroke-width:0.197216"
       inkscape:transform-center-x="3.7181705e-06"
       inkscape:transform-center-y="0.73929401"
       d="m 169.33332,175.77406 -2.55818,-2.21788 -2.55821,-2.21789 5.11639,1.32594 5.11641,-1.32594 -2.55821,2.21789 z"
       sodipodi:nodetypes="ccccccc" /><circle
       style="opacity:1;fill:#54e088;fill-opacity:1;stroke:none;stroke-width:0.141547;stroke-dasharray:none;stroke-dashoffset:0;stroke-opacity:1"
       id="path39"
       cx="261.08237"
       cy="12.136446"
       r="0.66186458" /><path
       sodipodi:type="star"
       style="opacity:1;fill:none;fill-opacity:1;stroke:#54e088;stroke-width:0.630084;stroke-dasharray:none;stroke-dashoffset:0;stroke-opacity:1"
       id="path40"
       inkscape:flatsided="false"
       sodipodi:sides="8"
       sodipodi:cx="246.26707"
       sodipodi:cy="24.247694"
       sodipodi:r1="6.9049654"
       sodipodi:r2="4.4290347"
       sodipodi:arg1="1.5707963"
       sodipodi:arg2="1.9634954"
       inkscape:rounded="0"
       inkscape:randomized="0"
       d="m 246.26707,31.152659 -1.69491,-2.81307 -3.18763,0.790653 0.79065,-3.18763 -2.81307,-1.694918 2.81307,-1.694918 -0.79065,-3.18763 3.18763,0.790654 1.69491,-2.813071 1.69492,2.81307 3.18763,-0.790653 -0.79065,3.18763 2.81307,1.694918 -2.81307,1.694918 0.79065,3.18763 -3.18763,-0.790653 z"
       inkscape:transform-center-x="9.8452581e-06"
       transform="matrix(0.29262444,0,0,0.29262444,189.0186,5.0409782)" /><text
       xml:space="preserve"
       style="font-style:normal;font-variant:normal;font-weight:normal;font-stretch:normal;font-size:5.09364px;font-family:'Major Mono Display';-inkscape-font-specification:'Major Mono Display';text-align:center;text-anchor:middle;fill:#54e088;fill-opacity:1;stroke-width:0.530589"
       x="169.98529"
       y="111.62431"
       id="text72"><tspan
         sodipodi:role="line"
         style="fill:#54e088;fill-opacity:1;stroke-width:0.530589"
         x="169.98529"
         y="111.62431"
         id="tspan72">DESIGNER &amp; DESENVOLVEDOR</tspan></text><path
       id="path50"
       style="opacity:1;fill:#8065e2;fill-opacity:1;stroke-width:0.112114"
       d="m 77.601256,5.0631781 1.219179,0.00156 3.0612,3.4373083 0.340438,1.8006256 L 80.067812,7.7455522 80.723203,11.0325 79.285694,10.422961 78.595058,5.9335662 Z m -5.634573,3.8621343 2.15184,0.03651 7.089144,2.6232466 -1.233782,0.168746 -0.565673,2.623825 -1.982057,-1.564927 2.168418,0.03699 -5.75169,-3.2909776 -1.05613,-0.158931 -3.6e-4,4.6e-5 z m 0.82007,0.474483 4.542028,4.7344096 1.125321,0.224761 -1.229154,0.802432 -0.378425,-0.119896 z m 4.438195,5.7616026 2.183264,-0.783762 -0.131175,0.607413 1.247666,2.130199 -0.898006,-2.283451 0.64944,-2.687558 1.590113,-0.649145 -1.074864,3.413008 1.428725,-3.073469 1.119002,-0.554065 -0.609888,0.089 -0.454765,-2.4748726 2.124643,2.2917866 -0.30512,0.835889 0.56107,-0.349355 0.62244,-0.389724 2.02011,1.013977 -0.19404,2.417529 -0.83689,1.547519 0.38456,-1.577757 -0.36773,-2.117639 -0.0667,-0.385477 -0.98144,0.962955 -1.84305,-0.942595 -1.304491,2.302487 0.684991,2.229793 -1.981997,-1.824808 -0.14511,0.46124 0.909408,2.02912 -0.461159,-1.741799 1.678858,1.076247 -0.293388,-2.037039 1.050998,-1.581723 1.70494,0.02908 0.51479,0.595371 -0.47676,0.673164 -0.0314,1.285325 1.69643,1.078813 -1.53067,1.734403 -3.872109,-1.094709 -1.012782,0.882832 0.002,-1.168947 -0.01215,-0.0032 -0.799605,0.797358 0.0012,-1.023128 -1.480741,-0.418752 1.19647,-0.656283 z m 8.016985,0.536861 0.80114,-2.18354 -0.80773,-0.37032 1.04816,-0.577478 0.07084,2.111436 z m -3.375683,-4.203165 -0.65786,0.08988 -0.612781,-2.7688766 2.107643,2.5570966 z"
       sodipodi:nodetypes="ccccccccccccccccccccccccccccccccccccccccccccccccccccccccccccccccccccccccccccccccccccc" /><path
       id="path74"
       style="opacity:1;fill:#8264e6;fill-opacity:1;stroke-width:0.368684;fill-rule:evenodd"
       d="m 156.38535,41.009093 4.00905,-0.04077 10.1961,11.186944 1.18758,5.908054 -7.18055,-8.326972 2.27951,10.783556 -4.74999,-1.949931 -2.44088,-14.736186 z m -18.3818,12.912931 7.07718,0.03863 23.41024,8.357679 -4.0506,0.601566 -1.76084,8.649239 -6.57672,-5.070894 7.13173,0.03957 -19.03758,-10.603966 -3.47886,-0.482642 -0.001,1.63e-4 z m 2.71455,1.529194 15.1145,15.396125 3.70886,0.696491 -4.01141,2.68512 -1.24888,-0.379931 z m 14.81195,18.777736 7.14948,-2.659831 -0.40832,2.002297 4.18326,6.957448 -3.03929,-7.474612 2.03383,-8.861976 5.20414,-2.194731 -3.40528,11.263548 4.5817,-10.160444 3.65862,-1.864255 -2.00209,0.315734 -1.58904,-8.12083 7.0731,7.455607 -0.97171,2.760169 1.83175,-1.170001 2.03201,-1.305069 6.68104,3.257783 -0.54656,7.956817 -2.69336,5.120321 1.20482,-5.202634 -1.28935,-6.949443 -0.23392,-1.265025 -3.19081,3.203588 -6.09606,-3.029762 -4.20241,7.620548 2.3368,7.306232 -6.58636,-5.925455 -0.4597,1.52217 3.06716,6.637872 -1.58233,-5.710046 5.56123,3.475459 -1.04178,-6.687223 3.39607,-5.240893 5.60738,0.03111 1.71535,1.938257 -1.54227,2.231583 -0.0546,4.227677 5.61913,3.48323 -4.96759,5.761098 -12.77394,-3.453173 -3.29693,2.941307 -0.038,-3.843876 -0.0399,-0.01008 -2.59912,2.652181 -0.0352,-3.364359 -4.88491,-1.320936 3.90949,-2.203309 z m 26.38231,1.461979 2.5517,-7.210371 -2.67004,-1.187146 3.42478,-1.938564 0.55167,6.806442 z m -11.25921,-13.693384 -2.1598,0.320443 -2.11978,-9.081613 7.02724,8.32866 z" /><text
       xml:space="preserve"
       style="font-style:normal;font-variant:normal;font-weight:normal;font-stretch:normal;font-size:4.87042px;font-family:'Major Mono Display';-inkscape-font-specification:'Major Mono Display';text-align:center;text-anchor:middle;fill:#54e088;fill-opacity:1;stroke-width:0.507337"
       x="158.57912"
       y="163.68251"
       id="text75"><tspan
         sodipodi:role="line"
         style="fill:#54e088;fill-opacity:1;stroke-width:0.507337"
         x="158.57912"
         y="163.68251"
         id="tspan75">PT-BR</tspan></text><text
       xml:space="preserve"
       style="font-style:normal;font-variant:normal;font-weight:normal;font-stretch:normal;font-size:4.87042px;font-family:'Major Mono Display';-inkscape-font-specification:'Major Mono Display';text-align:center;text-anchor:middle;fill:#8065e2;fill-opacity:1;stroke-width:0.507337"
       x="178.72261"
       y="163.68251"
       id="text76"><tspan
         sodipodi:role="line"
         style="fill:#8065e2;fill-opacity:1;stroke-width:0.507337"
         x="178.72261"
         y="163.68251"
         id="tspan76">EN-US</tspan></text><rect
       style="opacity:1;fill:#54e088;fill-opacity:1;stroke:none;stroke-width:0.266055;stroke-dasharray:none;stroke-opacity:1"
       id="rect76"
       width="17.024256"
       height="0.63887936"
       x="150.21181"
       y="164.3423" /><text
       xml:space="preserve"
       style="font-style:normal;font-variant:normal;font-weight:900;font-stretch:normal;font-size:3.18103px;line-height:0.8;font-family:Unbounded;-inkscape-font-specification:'Unbounded Heavy';opacity:1;fill:#8065e2;fill-opacity:1;stroke:none;stroke-width:0.0662713;stroke-dasharray:none;stroke-opacity:1"
       x="157.29315"
       y="135.70389"
       id="text77"><tspan
         sodipodi:role="line"
         id="tspan77"
         style="stroke-width:0.0662713;fill:#8065e2;fill-opacity:1"
         x="157.29315"
         y="135.70389">SOBRE MIM</tspan></text><rect
       style="fill:#1f1c24;stroke-width:1.34549"
       id="rect79"
       width="338.66666"
       height="190.5"
       x="0"
       y="205.30627" /><rect
       style="opacity:1;fill:#8065e2;fill-opacity:1;stroke:none;stroke-width:0.264999;stroke-dasharray:none;stroke-opacity:1;filter:url(#filter88)"
       id="rect88"
       width="338.66666"
       height="23.45063"
       x="0"
       y="205.30627" /><path
       style="fill:none;fill-opacity:0.639742;stroke:#54e088;stroke-width:0.264583;stroke-dasharray:0.79375, 0.79375;stroke-dashoffset:0;stroke-opacity:1"
       d="m 66.595963,205.30627 v 190.5"
       id="path79" /><path
       style="fill:none;fill-opacity:0.639742;stroke:#54e088;stroke-width:0.264583;stroke-dasharray:0.79375, 0.79375;stroke-dashoffset:0;stroke-opacity:1"
       d="m 272.0707,205.30627 v 190.5"
       id="path80" /><rect
       style="opacity:1;fill:#1f1c24;fill-opacity:1;stroke:none;stroke-width:0.264999;stroke-dasharray:none;stroke-opacity:1"
       id="rect80"
       width="338.66666"
       height="23.45063"
       x="0"
       y="205.30627" /><text
       xml:space="preserve"
       style="font-style:normal;font-variant:normal;font-weight:normal;font-stretch:normal;font-size:4.87042px;font-family:'Major Mono Display';-inkscape-font-specification:'Major Mono Display';text-align:center;text-anchor:middle;fill:#54e088;fill-opacity:1;stroke-width:0.507337"
       x="236.55003"
       y="219.14006"
       id="text80"><tspan
         sodipodi:role="line"
         style="fill:#54e088;fill-opacity:1;stroke-width:0.507337"
         x="236.55003"
         y="219.14006"
         id="tspan80">HOBBIES</tspan></text><text
       xml:space="preserve"
       style="font-style:normal;font-variant:normal;font-weight:normal;font-stretch:normal;font-size:4.87042px;font-family:'Major Mono Display';-inkscape-font-specification:'Major Mono Display';text-align:center;text-anchor:middle;fill:#54e088;fill-opacity:1;stroke-width:0.507337"
       x="197.36577"
       y="219.14006"
       id="text81"><tspan
         sodipodi:role="line"
         style="fill:#54e088;fill-opacity:1;stroke-width:0.507337"
         x="197.36577"
         y="219.14006"
         id="tspan81">TRABALHOS</tspan></text><circle
       style="opacity:1;fill:#54e088;fill-opacity:1;stroke:none;stroke-width:0.141547;stroke-dasharray:none;stroke-dashoffset:0;stroke-opacity:1"
       id="circle81"
       cx="261.08237"
       cy="217.44272"
       r="0.66186458" /><path
       sodipodi:type="star"
       style="opacity:1;fill:none;fill-opacity:1;stroke:#54e088;stroke-width:0.630084;stroke-dasharray:none;stroke-dashoffset:0;stroke-opacity:1"
       id="path81"
       inkscape:flatsided="false"
       sodipodi:sides="8"
       sodipodi:cx="246.26707"
       sodipodi:cy="24.247694"
       sodipodi:r1="6.9049654"
       sodipodi:r2="4.4290347"
       sodipodi:arg1="1.5707963"
       sodipodi:arg2="1.9634954"
       inkscape:rounded="0"
       inkscape:randomized="0"
       d="m 246.26707,31.152659 -1.69491,-2.81307 -3.18763,0.790653 0.79065,-3.18763 -2.81307,-1.694918 2.81307,-1.694918 -0.79065,-3.18763 3.18763,0.790654 1.69491,-2.813071 1.69492,2.81307 3.18763,-0.790653 -0.79065,3.18763 2.81307,1.694918 -2.81307,1.694918 0.79065,3.18763 -3.18763,-0.790653 z"
       inkscape:transform-center-x="9.8452581e-06"
       transform="matrix(0.29262444,0,0,0.29262444,189.0186,210.34724)" /><path
       id="path82"
       style="opacity:1;fill:#8065e2;fill-opacity:1;stroke-width:0.112114"
       d="m 77.601256,210.36944 1.219179,0.002 3.0612,3.43731 0.340438,1.80063 -2.154261,-2.55712 0.655391,3.28695 -1.437509,-0.60954 -0.690636,-4.4894 z m -5.634573,3.86214 2.15184,0.0365 7.089144,2.62325 -1.233782,0.16874 -0.565673,2.62383 -1.982057,-1.56493 2.168418,0.037 -5.75169,-3.29098 -1.05613,-0.15893 -3.6e-4,5e-5 z m 0.82007,0.47448 4.542028,4.73441 1.125321,0.22476 -1.229154,0.80243 -0.378425,-0.11989 z m 4.438195,5.7616 2.183264,-0.78376 -0.131175,0.60742 1.247666,2.13019 -0.898006,-2.28345 0.64944,-2.68755 1.590113,-0.64915 -1.074864,3.41301 1.428725,-3.07347 1.119002,-0.55407 -0.609888,0.089 -0.454765,-2.47487 2.124643,2.29179 -0.30512,0.83589 0.56107,-0.34936 0.62244,-0.38972 2.02011,1.01398 -0.19404,2.41752 -0.83689,1.54752 0.38456,-1.57775 -0.36773,-2.11764 -0.0667,-0.38548 -0.98144,0.96296 -1.84305,-0.9426 -1.304491,2.30249 0.684991,2.22979 -1.981997,-1.82481 -0.14511,0.46124 0.909408,2.02912 -0.461159,-1.7418 1.678858,1.07625 -0.293388,-2.03704 1.050998,-1.58172 1.70494,0.0291 0.51479,0.59537 -0.47676,0.67316 -0.0314,1.28533 1.69643,1.07881 -1.53067,1.7344 -3.872109,-1.0947 -1.012782,0.88283 0.002,-1.16895 -0.01215,-0.003 -0.799605,0.79736 0.0012,-1.02313 -1.480741,-0.41875 1.19647,-0.65628 z m 8.016985,0.53687 0.80114,-2.18354 -0.80773,-0.37032 1.04816,-0.57748 0.07084,2.11143 z m -3.375683,-4.20317 -0.65786,0.0899 -0.612781,-2.76888 2.107643,2.5571 z"
       sodipodi:nodetypes="ccccccccccccccccccccccccccccccccccccccccccccccccccccccccccccccccccccccccccccccccccccc" /><path
       style="opacity:1;fill:none;fill-opacity:1;stroke:#8065e2;stroke-width:0.265;stroke-dasharray:none;stroke-opacity:1"
       d="M 338.66666,228.7569 H 0"
       id="path83" /><rect
       style="opacity:1;fill:none;stroke:#8065e2;stroke-width:10.4341;stroke-dasharray:none;stroke-opacity:1"
       id="rect2"
       width="22.601156"
       height="22.601156"
       x="70.986969"
       y="2.438849" /><path
       id="path2"
       style="opacity:1;fill:#1f1c24;fill-opacity:1;stroke-width:0.112114"
       d="M 77.601465 5.0632568 L 78.595203 5.933488 L 78.860819 7.6599976 L 81.131999 7.6599976 L 78.820512 5.0648071 L 77.601465 5.0632568 z M 71.966667 8.9255534 L 72.786255 9.399943 L 72.786772 9.399943 L 73.843038 9.5585897 L 76.18088 10.896493 L 76.18088 9.7249878 L 74.118473 8.9617269 L 71.966667 8.9255534 z M 72.786772 9.399943 L 76.18088 14.116451 L 76.18088 12.937712 L 72.786772 9.399943 z " /><rect
       style="opacity:1;fill:none;fill-opacity:1;stroke:#ffffff;stroke-width:0.272076;stroke-dasharray:none;stroke-opacity:1"
       id="rect3"
       width="15.166191"
       height="15.166191"
       x="74.704453"
       y="6.1563315" /></g></svg>
